<?xml version="1.0" encoding="UTF-8" standalone="no"?>
<!DOCTYPE svg PUBLIC "-//W3C//DTD SVG 1.1//EN"
 "http://www.w3.org/Graphics/SVG/1.1/DTD/svg11.dtd">
<!-- Generated by graphviz version 14.1.0 (20251206.1807)
 -->
<!-- Pages: 1 -->
<svg width="1632pt" height="620pt"
 viewBox="0.00 0.00 1632.00 620.00" xmlns="http://www.w3.org/2000/svg" xmlns:xlink="http://www.w3.org/1999/xlink">
<g id="graph0" class="graph" transform="scale(1 1) rotate(0) translate(4 616)">
<polygon fill="white" stroke="none" points="-4,4 -4,-616 1627.88,-616 1627.88,4 -4,4"/>
<!-- [root] aws_eip.main -->
<g id="node1" class="node">
<title>[root] aws_eip.main</title>
<polygon fill="none" stroke="black" points="91.75,-324 0,-324 0,-288 91.75,-288 91.75,-324"/>
<text xml:space="preserve" text-anchor="middle" x="45.88" y="-300.95" font-family="Times,serif" font-size="14.00">aws_eip.main</text>
</g>
<!-- [root] aws_eip.main (expand) -->
<g id="node2" class="node">
<title>[root] aws_eip.main (expand)</title>
<polygon fill="none" stroke="black" points="367.75,-180 276,-180 276,-144 367.75,-144 367.75,-180"/>
<text xml:space="preserve" text-anchor="middle" x="321.88" y="-156.95" font-family="Times,serif" font-size="14.00">aws_eip.main</text>
</g>
<!-- [root] aws_eip.main&#45;&gt;[root] aws_eip.main (expand) -->
<g id="edge2" class="edge">
<title>[root] aws_eip.main&#45;&gt;[root] aws_eip.main (expand)</title>
<path fill="none" stroke="black" d="M45.88,-287.76C45.88,-249.01 45.88,-162 45.88,-162 45.88,-162 264.17,-162 264.17,-162"/>
<polygon fill="black" stroke="black" points="264.17,-165.5 274.17,-162 264.17,-158.5 264.17,-165.5"/>
</g>
<!-- [root] provider[&quot;registry.terraform.io/hashicorp/aws&quot;] -->
<g id="node27" class="node">
<title>[root] provider[&quot;registry.terraform.io/hashicorp/aws&quot;]</title>
<polygon fill="none" stroke="black" points="376.88,-36 112.44,-18 376.87,0 641.31,-18 376.88,-36"/>
<text xml:space="preserve" text-anchor="middle" x="376.88" y="-12.95" font-family="Times,serif" font-size="14.00">provider[&quot;registry.terraform.io/hashicorp/aws&quot;]</text>
</g>
<!-- [root] aws_eip.main (expand)&#45;&gt;[root] provider[&quot;registry.terraform.io/hashicorp/aws&quot;] -->
<g id="edge1" class="edge">
<title>[root] aws_eip.main (expand)&#45;&gt;[root] provider[&quot;registry.terraform.io/hashicorp/aws&quot;]</title>
<path fill="none" stroke="black" d="M321.88,-143.76C321.88,-143.76 321.88,-44.13 321.88,-44.13"/>
<polygon fill="black" stroke="black" points="325.38,-44.13 321.88,-34.13 318.38,-44.13 325.38,-44.13"/>
</g>
<!-- [root] aws_internet_gateway.main -->
<g id="node3" class="node">
<title>[root] aws_internet_gateway.main</title>
<polygon fill="none" stroke="black" points="277.62,-324 110.12,-324 110.12,-288 277.62,-288 277.62,-324"/>
<text xml:space="preserve" text-anchor="middle" x="193.88" y="-300.95" font-family="Times,serif" font-size="14.00">aws_internet_gateway.main</text>
</g>
<!-- [root] aws_internet_gateway.main (expand) -->
<g id="node4" class="node">
<title>[root] aws_internet_gateway.main (expand)</title>
<polygon fill="none" stroke="black" points="277.62,-252 110.12,-252 110.12,-216 277.62,-216 277.62,-252"/>
<text xml:space="preserve" text-anchor="middle" x="193.88" y="-228.95" font-family="Times,serif" font-size="14.00">aws_internet_gateway.main</text>
</g>
<!-- [root] aws_internet_gateway.main&#45;&gt;[root] aws_internet_gateway.main (expand) -->
<g id="edge4" class="edge">
<title>[root] aws_internet_gateway.main&#45;&gt;[root] aws_internet_gateway.main (expand)</title>
<path fill="none" stroke="black" d="M193.88,-287.83C193.88,-287.83 193.88,-263.93 193.88,-263.93"/>
<polygon fill="black" stroke="black" points="197.38,-263.93 193.88,-253.93 190.38,-263.93 197.38,-263.93"/>
</g>
<!-- [root] aws_vpc.main -->
<g id="node25" class="node">
<title>[root] aws_vpc.main</title>
<polygon fill="none" stroke="black" points="719.25,-180 624.5,-180 624.5,-144 719.25,-144 719.25,-180"/>
<text xml:space="preserve" text-anchor="middle" x="671.88" y="-156.95" font-family="Times,serif" font-size="14.00">aws_vpc.main</text>
</g>
<!-- [root] aws_internet_gateway.main (expand)&#45;&gt;[root] aws_vpc.main -->
<g id="edge3" class="edge">
<title>[root] aws_internet_gateway.main (expand)&#45;&gt;[root] aws_vpc.main</title>
<path fill="none" stroke="black" d="M194.22,-215.58C194.22,-206.72 194.22,-198 194.22,-198 194.22,-198 656.08,-198 656.08,-198 656.08,-198 656.08,-191.94 656.08,-191.94"/>
<polygon fill="black" stroke="black" points="659.58,-191.94 656.08,-181.94 652.58,-191.94 659.58,-191.94"/>
</g>
<!-- [root] aws_nat_gateway.main -->
<g id="node5" class="node">
<title>[root] aws_nat_gateway.main</title>
<polygon fill="none" stroke="black" points="210.25,-468 67.5,-468 67.5,-432 210.25,-432 210.25,-468"/>
<text xml:space="preserve" text-anchor="middle" x="138.88" y="-444.95" font-family="Times,serif" font-size="14.00">aws_nat_gateway.main</text>
</g>
<!-- [root] aws_nat_gateway.main (expand) -->
<g id="node6" class="node">
<title>[root] aws_nat_gateway.main (expand)</title>
<polygon fill="none" stroke="black" points="237.25,-396 94.5,-396 94.5,-360 237.25,-360 237.25,-396"/>
<text xml:space="preserve" text-anchor="middle" x="165.88" y="-372.95" font-family="Times,serif" font-size="14.00">aws_nat_gateway.main</text>
</g>
<!-- [root] aws_nat_gateway.main&#45;&gt;[root] aws_nat_gateway.main (expand) -->
<g id="edge8" class="edge">
<title>[root] aws_nat_gateway.main&#45;&gt;[root] aws_nat_gateway.main (expand)</title>
<path fill="none" stroke="black" d="M152.38,-431.83C152.38,-431.83 152.38,-407.93 152.38,-407.93"/>
<polygon fill="black" stroke="black" points="155.88,-407.93 152.38,-397.93 148.88,-407.93 155.88,-407.93"/>
</g>
<!-- [root] aws_nat_gateway.main (expand)&#45;&gt;[root] aws_eip.main -->
<g id="edge5" class="edge">
<title>[root] aws_nat_gateway.main (expand)&#45;&gt;[root] aws_eip.main</title>
<path fill="none" stroke="black" d="M102.31,-359.83C102.31,-338.5 102.31,-306 102.31,-306 102.31,-306 101.3,-306 101.3,-306"/>
<polygon fill="black" stroke="black" points="103.74,-302.5 93.74,-306 103.74,-309.5 103.74,-302.5"/>
</g>
<!-- [root] aws_nat_gateway.main (expand)&#45;&gt;[root] aws_internet_gateway.main -->
<g id="edge6" class="edge">
<title>[root] aws_nat_gateway.main (expand)&#45;&gt;[root] aws_internet_gateway.main</title>
<path fill="none" stroke="black" d="M173.69,-359.83C173.69,-359.83 173.69,-335.93 173.69,-335.93"/>
<polygon fill="black" stroke="black" points="177.19,-335.93 173.69,-325.93 170.19,-335.93 177.19,-335.93"/>
</g>
<!-- [root] aws_subnet.public_c -->
<g id="node23" class="node">
<title>[root] aws_subnet.public_c</title>
<polygon fill="none" stroke="black" points="424.5,-324 295.25,-324 295.25,-288 424.5,-288 424.5,-324"/>
<text xml:space="preserve" text-anchor="middle" x="359.88" y="-300.95" font-family="Times,serif" font-size="14.00">aws_subnet.public_c</text>
</g>
<!-- [root] aws_nat_gateway.main (expand)&#45;&gt;[root] aws_subnet.public_c -->
<g id="edge7" class="edge">
<title>[root] aws_nat_gateway.main (expand)&#45;&gt;[root] aws_subnet.public_c</title>
<path fill="none" stroke="black" d="M237.48,-378C271.56,-378 305,-378 305,-378 305,-378 305,-335.68 305,-335.68"/>
<polygon fill="black" stroke="black" points="308.5,-335.68 305,-325.68 301.5,-335.68 308.5,-335.68"/>
</g>
<!-- [root] aws_subnet.private_data_a -->
<g id="node7" class="node">
<title>[root] aws_subnet.private_data_a</title>
<polygon fill="none" stroke="black" points="391,-468 228.75,-468 228.75,-432 391,-432 391,-468"/>
<text xml:space="preserve" text-anchor="middle" x="309.88" y="-444.95" font-family="Times,serif" font-size="14.00">aws_subnet.private_data_a</text>
</g>
<!-- [root] aws_subnet.private_data_a (expand) -->
<g id="node8" class="node">
<title>[root] aws_subnet.private_data_a (expand)</title>
<polygon fill="none" stroke="black" points="477,-396 314.75,-396 314.75,-360 477,-360 477,-396"/>
<text xml:space="preserve" text-anchor="middle" x="395.88" y="-372.95" font-family="Times,serif" font-size="14.00">aws_subnet.private_data_a</text>
</g>
<!-- [root] aws_subnet.private_data_a&#45;&gt;[root] aws_subnet.private_data_a (expand) -->
<g id="edge10" class="edge">
<title>[root] aws_subnet.private_data_a&#45;&gt;[root] aws_subnet.private_data_a (expand)</title>
<path fill="none" stroke="black" d="M352.88,-431.83C352.88,-431.83 352.88,-407.93 352.88,-407.93"/>
<polygon fill="black" stroke="black" points="356.38,-407.93 352.88,-397.93 349.38,-407.93 356.38,-407.93"/>
</g>
<!-- [root] aws_subnet.private_data_a (expand)&#45;&gt;[root] aws_vpc.main -->
<g id="edge9" class="edge">
<title>[root] aws_subnet.private_data_a (expand)&#45;&gt;[root] aws_vpc.main</title>
<path fill="none" stroke="black" d="M447.88,-359.58C447.88,-307.35 447.88,-162 447.88,-162 447.88,-162 612.58,-162 612.58,-162"/>
<polygon fill="black" stroke="black" points="612.58,-165.5 622.58,-162 612.58,-158.5 612.58,-165.5"/>
</g>
<!-- [root] aws_subnet.private_data_b -->
<g id="node9" class="node">
<title>[root] aws_subnet.private_data_b</title>
<polygon fill="none" stroke="black" points="572.38,-468 409.38,-468 409.38,-432 572.38,-432 572.38,-468"/>
<text xml:space="preserve" text-anchor="middle" x="490.88" y="-444.95" font-family="Times,serif" font-size="14.00">aws_subnet.private_data_b</text>
</g>
<!-- [root] aws_subnet.private_data_b (expand) -->
<g id="node10" class="node">
<title>[root] aws_subnet.private_data_b (expand)</title>
<polygon fill="none" stroke="black" points="644.38,-324 481.38,-324 481.38,-288 644.38,-288 644.38,-324"/>
<text xml:space="preserve" text-anchor="middle" x="562.88" y="-300.95" font-family="Times,serif" font-size="14.00">aws_subnet.private_data_b</text>
</g>
<!-- [root] aws_subnet.private_data_b&#45;&gt;[root] aws_subnet.private_data_b (expand) -->
<g id="edge12" class="edge">
<title>[root] aws_subnet.private_data_b&#45;&gt;[root] aws_subnet.private_data_b (expand)</title>
<path fill="none" stroke="black" d="M526.88,-431.76C526.88,-431.76 526.88,-335.6 526.88,-335.6"/>
<polygon fill="black" stroke="black" points="530.38,-335.6 526.88,-325.6 523.38,-335.6 530.38,-335.6"/>
</g>
<!-- [root] aws_subnet.private_data_b (expand)&#45;&gt;[root] aws_vpc.main -->
<g id="edge11" class="edge">
<title>[root] aws_subnet.private_data_b (expand)&#45;&gt;[root] aws_vpc.main</title>
<path fill="none" stroke="black" d="M536.06,-287.51C536.06,-250.54 536.06,-171 536.06,-171 536.06,-171 612.86,-171 612.86,-171"/>
<polygon fill="black" stroke="black" points="612.86,-174.5 622.86,-171 612.86,-167.5 612.86,-174.5"/>
</g>
<!-- [root] aws_subnet.private_data_c -->
<g id="node11" class="node">
<title>[root] aws_subnet.private_data_c</title>
<polygon fill="none" stroke="black" points="753,-468 590.75,-468 590.75,-432 753,-432 753,-468"/>
<text xml:space="preserve" text-anchor="middle" x="671.88" y="-444.95" font-family="Times,serif" font-size="14.00">aws_subnet.private_data_c</text>
</g>
<!-- [root] aws_subnet.private_data_c (expand) -->
<g id="node12" class="node">
<title>[root] aws_subnet.private_data_c (expand)</title>
<polygon fill="none" stroke="black" points="753,-252 590.75,-252 590.75,-216 753,-216 753,-252"/>
<text xml:space="preserve" text-anchor="middle" x="671.88" y="-228.95" font-family="Times,serif" font-size="14.00">aws_subnet.private_data_c</text>
</g>
<!-- [root] aws_subnet.private_data_c&#45;&gt;[root] aws_subnet.private_data_c (expand) -->
<g id="edge14" class="edge">
<title>[root] aws_subnet.private_data_c&#45;&gt;[root] aws_subnet.private_data_c (expand)</title>
<path fill="none" stroke="black" d="M698.69,-431.58C698.69,-431.58 698.69,-263.88 698.69,-263.88"/>
<polygon fill="black" stroke="black" points="702.19,-263.88 698.69,-253.88 695.19,-263.88 702.19,-263.88"/>
</g>
<!-- [root] aws_subnet.private_data_c (expand)&#45;&gt;[root] aws_vpc.main -->
<g id="edge13" class="edge">
<title>[root] aws_subnet.private_data_c (expand)&#45;&gt;[root] aws_vpc.main</title>
<path fill="none" stroke="black" d="M687.67,-215.83C687.67,-215.83 687.67,-191.93 687.67,-191.93"/>
<polygon fill="black" stroke="black" points="691.17,-191.93 687.67,-181.93 684.17,-191.93 691.17,-191.93"/>
</g>
<!-- [root] aws_subnet.private_egress_a -->
<g id="node13" class="node">
<title>[root] aws_subnet.private_egress_a</title>
<polygon fill="none" stroke="black" points="944.62,-468 771.12,-468 771.12,-432 944.62,-432 944.62,-468"/>
<text xml:space="preserve" text-anchor="middle" x="857.88" y="-444.95" font-family="Times,serif" font-size="14.00">aws_subnet.private_egress_a</text>
</g>
<!-- [root] aws_subnet.private_egress_a (expand) -->
<g id="node14" class="node">
<title>[root] aws_subnet.private_egress_a (expand)</title>
<polygon fill="none" stroke="black" points="944.62,-252 771.12,-252 771.12,-216 944.62,-216 944.62,-252"/>
<text xml:space="preserve" text-anchor="middle" x="857.88" y="-228.95" font-family="Times,serif" font-size="14.00">aws_subnet.private_egress_a</text>
</g>
<!-- [root] aws_subnet.private_egress_a&#45;&gt;[root] aws_subnet.private_egress_a (expand) -->
<g id="edge16" class="edge">
<title>[root] aws_subnet.private_egress_a&#45;&gt;[root] aws_subnet.private_egress_a (expand)</title>
<path fill="none" stroke="black" d="M849.94,-431.58C849.94,-431.58 849.94,-263.88 849.94,-263.88"/>
<polygon fill="black" stroke="black" points="853.44,-263.88 849.94,-253.88 846.44,-263.88 853.44,-263.88"/>
</g>
<!-- [root] aws_subnet.private_egress_a (expand)&#45;&gt;[root] aws_vpc.main -->
<g id="edge15" class="edge">
<title>[root] aws_subnet.private_egress_a (expand)&#45;&gt;[root] aws_vpc.main</title>
<path fill="none" stroke="black" d="M857.88,-215.67C857.88,-198.03 857.88,-174 857.88,-174 857.88,-174 730.81,-174 730.81,-174"/>
<polygon fill="black" stroke="black" points="730.81,-170.5 720.81,-174 730.81,-177.5 730.81,-170.5"/>
</g>
<!-- [root] aws_subnet.private_egress_b -->
<g id="node15" class="node">
<title>[root] aws_subnet.private_egress_b</title>
<polygon fill="none" stroke="black" points="1137,-468 962.75,-468 962.75,-432 1137,-432 1137,-468"/>
<text xml:space="preserve" text-anchor="middle" x="1049.88" y="-444.95" font-family="Times,serif" font-size="14.00">aws_subnet.private_egress_b</text>
</g>
<!-- [root] aws_subnet.private_egress_b (expand) -->
<g id="node16" class="node">
<title>[root] aws_subnet.private_egress_b (expand)</title>
<polygon fill="none" stroke="black" points="1103,-396 928.75,-396 928.75,-360 1103,-360 1103,-396"/>
<text xml:space="preserve" text-anchor="middle" x="1015.88" y="-372.95" font-family="Times,serif" font-size="14.00">aws_subnet.private_egress_b</text>
</g>
<!-- [root] aws_subnet.private_egress_b&#45;&gt;[root] aws_subnet.private_egress_b (expand) -->
<g id="edge18" class="edge">
<title>[root] aws_subnet.private_egress_b&#45;&gt;[root] aws_subnet.private_egress_b (expand)</title>
<path fill="none" stroke="black" d="M1032.88,-431.83C1032.88,-431.83 1032.88,-407.93 1032.88,-407.93"/>
<polygon fill="black" stroke="black" points="1036.38,-407.93 1032.88,-397.93 1029.38,-407.93 1036.38,-407.93"/>
</g>
<!-- [root] aws_subnet.private_egress_b (expand)&#45;&gt;[root] aws_vpc.main -->
<g id="edge17" class="edge">
<title>[root] aws_subnet.private_egress_b (expand)&#45;&gt;[root] aws_vpc.main</title>
<path fill="none" stroke="black" d="M1023.81,-359.73C1023.81,-308.64 1023.81,-168 1023.81,-168 1023.81,-168 731.22,-168 731.22,-168"/>
<polygon fill="black" stroke="black" points="731.22,-164.5 721.22,-168 731.22,-171.5 731.22,-164.5"/>
</g>
<!-- [root] aws_subnet.private_egress_c -->
<g id="node17" class="node">
<title>[root] aws_subnet.private_egress_c</title>
<polygon fill="none" stroke="black" points="1328.62,-468 1155.12,-468 1155.12,-432 1328.62,-432 1328.62,-468"/>
<text xml:space="preserve" text-anchor="middle" x="1241.88" y="-444.95" font-family="Times,serif" font-size="14.00">aws_subnet.private_egress_c</text>
</g>
<!-- [root] aws_subnet.private_egress_c (expand) -->
<g id="node18" class="node">
<title>[root] aws_subnet.private_egress_c (expand)</title>
<polygon fill="none" stroke="black" points="1313.62,-396 1140.12,-396 1140.12,-360 1313.62,-360 1313.62,-396"/>
<text xml:space="preserve" text-anchor="middle" x="1226.88" y="-372.95" font-family="Times,serif" font-size="14.00">aws_subnet.private_egress_c</text>
</g>
<!-- [root] aws_subnet.private_egress_c&#45;&gt;[root] aws_subnet.private_egress_c (expand) -->
<g id="edge20" class="edge">
<title>[root] aws_subnet.private_egress_c&#45;&gt;[root] aws_subnet.private_egress_c (expand)</title>
<path fill="none" stroke="black" d="M1234.38,-431.83C1234.38,-431.83 1234.38,-407.93 1234.38,-407.93"/>
<polygon fill="black" stroke="black" points="1237.88,-407.93 1234.38,-397.93 1230.88,-407.93 1237.88,-407.93"/>
</g>
<!-- [root] aws_subnet.private_egress_c (expand)&#45;&gt;[root] aws_vpc.main -->
<g id="edge19" class="edge">
<title>[root] aws_subnet.private_egress_c (expand)&#45;&gt;[root] aws_vpc.main</title>
<path fill="none" stroke="black" d="M1222.5,-359.58C1222.5,-307.35 1222.5,-162 1222.5,-162 1222.5,-162 730.81,-162 730.81,-162"/>
<polygon fill="black" stroke="black" points="730.81,-158.5 720.81,-162 730.81,-165.5 730.81,-158.5"/>
</g>
<!-- [root] aws_subnet.public_a -->
<g id="node19" class="node">
<title>[root] aws_subnet.public_a</title>
<polygon fill="none" stroke="black" points="1475.5,-468 1346.25,-468 1346.25,-432 1475.5,-432 1475.5,-468"/>
<text xml:space="preserve" text-anchor="middle" x="1410.88" y="-444.95" font-family="Times,serif" font-size="14.00">aws_subnet.public_a</text>
</g>
<!-- [root] aws_subnet.public_a (expand) -->
<g id="node20" class="node">
<title>[root] aws_subnet.public_a (expand)</title>
<polygon fill="none" stroke="black" points="1470.5,-396 1341.25,-396 1341.25,-360 1470.5,-360 1470.5,-396"/>
<text xml:space="preserve" text-anchor="middle" x="1405.88" y="-372.95" font-family="Times,serif" font-size="14.00">aws_subnet.public_a</text>
</g>
<!-- [root] aws_subnet.public_a&#45;&gt;[root] aws_subnet.public_a (expand) -->
<g id="edge22" class="edge">
<title>[root] aws_subnet.public_a&#45;&gt;[root] aws_subnet.public_a (expand)</title>
<path fill="none" stroke="black" d="M1408.38,-431.83C1408.38,-431.83 1408.38,-407.93 1408.38,-407.93"/>
<polygon fill="black" stroke="black" points="1411.88,-407.93 1408.38,-397.93 1404.88,-407.93 1411.88,-407.93"/>
</g>
<!-- [root] aws_subnet.public_a (expand)&#45;&gt;[root] aws_vpc.main -->
<g id="edge21" class="edge">
<title>[root] aws_subnet.public_a (expand)&#45;&gt;[root] aws_vpc.main</title>
<path fill="none" stroke="black" d="M1452.69,-359.73C1452.69,-305.62 1452.69,-150 1452.69,-150 1452.69,-150 731.06,-150 731.06,-150"/>
<polygon fill="black" stroke="black" points="731.06,-146.5 721.06,-150 731.06,-153.5 731.06,-146.5"/>
</g>
<!-- [root] aws_subnet.public_b -->
<g id="node21" class="node">
<title>[root] aws_subnet.public_b</title>
<polygon fill="none" stroke="black" points="1623.88,-468 1493.88,-468 1493.88,-432 1623.88,-432 1623.88,-468"/>
<text xml:space="preserve" text-anchor="middle" x="1558.88" y="-444.95" font-family="Times,serif" font-size="14.00">aws_subnet.public_b</text>
</g>
<!-- [root] aws_subnet.public_b (expand) -->
<g id="node22" class="node">
<title>[root] aws_subnet.public_b (expand)</title>
<polygon fill="none" stroke="black" points="1434.88,-324 1304.88,-324 1304.88,-288 1434.88,-288 1434.88,-324"/>
<text xml:space="preserve" text-anchor="middle" x="1369.88" y="-300.95" font-family="Times,serif" font-size="14.00">aws_subnet.public_b</text>
</g>
<!-- [root] aws_subnet.public_b&#45;&gt;[root] aws_subnet.public_b (expand) -->
<g id="edge24" class="edge">
<title>[root] aws_subnet.public_b&#45;&gt;[root] aws_subnet.public_b (expand)</title>
<path fill="none" stroke="black" d="M1558.88,-431.76C1558.88,-393.01 1558.88,-306 1558.88,-306 1558.88,-306 1446.7,-306 1446.7,-306"/>
<polygon fill="black" stroke="black" points="1446.7,-302.5 1436.7,-306 1446.7,-309.5 1446.7,-302.5"/>
</g>
<!-- [root] aws_subnet.public_b (expand)&#45;&gt;[root] aws_vpc.main -->
<g id="edge23" class="edge">
<title>[root] aws_subnet.public_b (expand)&#45;&gt;[root] aws_vpc.main</title>
<path fill="none" stroke="black" d="M1369.88,-287.61C1369.88,-247.55 1369.88,-156 1369.88,-156 1369.88,-156 731.09,-156 731.09,-156"/>
<polygon fill="black" stroke="black" points="731.09,-152.5 721.09,-156 731.09,-159.5 731.09,-152.5"/>
</g>
<!-- [root] aws_subnet.public_c (expand) -->
<g id="node24" class="node">
<title>[root] aws_subnet.public_c (expand)</title>
<polygon fill="none" stroke="black" points="424.5,-252 295.25,-252 295.25,-216 424.5,-216 424.5,-252"/>
<text xml:space="preserve" text-anchor="middle" x="359.88" y="-228.95" font-family="Times,serif" font-size="14.00">aws_subnet.public_c</text>
</g>
<!-- [root] aws_subnet.public_c&#45;&gt;[root] aws_subnet.public_c (expand) -->
<g id="edge26" class="edge">
<title>[root] aws_subnet.public_c&#45;&gt;[root] aws_subnet.public_c (expand)</title>
<path fill="none" stroke="black" d="M359.88,-287.83C359.88,-287.83 359.88,-263.93 359.88,-263.93"/>
<polygon fill="black" stroke="black" points="363.38,-263.93 359.88,-253.93 356.38,-263.93 363.38,-263.93"/>
</g>
<!-- [root] aws_subnet.public_c (expand)&#45;&gt;[root] aws_vpc.main -->
<g id="edge25" class="edge">
<title>[root] aws_subnet.public_c (expand)&#45;&gt;[root] aws_vpc.main</title>
<path fill="none" stroke="black" d="M400.5,-215.62C400.5,-191.72 400.5,-153 400.5,-153 400.5,-153 612.78,-153 612.78,-153"/>
<polygon fill="black" stroke="black" points="612.78,-156.5 622.78,-153 612.78,-149.5 612.78,-156.5"/>
</g>
<!-- [root] aws_vpc.main (expand) -->
<g id="node26" class="node">
<title>[root] aws_vpc.main (expand)</title>
<polygon fill="none" stroke="black" points="471.25,-108 376.5,-108 376.5,-72 471.25,-72 471.25,-108"/>
<text xml:space="preserve" text-anchor="middle" x="423.88" y="-84.95" font-family="Times,serif" font-size="14.00">aws_vpc.main</text>
</g>
<!-- [root] aws_vpc.main&#45;&gt;[root] aws_vpc.main (expand) -->
<g id="edge28" class="edge">
<title>[root] aws_vpc.main&#45;&gt;[root] aws_vpc.main (expand)</title>
<path fill="none" stroke="black" d="M632.9,-143.83C632.9,-122.5 632.9,-90 632.9,-90 632.9,-90 483.08,-90 483.08,-90"/>
<polygon fill="black" stroke="black" points="483.08,-86.5 473.08,-90 483.08,-93.5 483.08,-86.5"/>
</g>
<!-- [root] aws_vpc.main (expand)&#45;&gt;[root] provider[&quot;registry.terraform.io/hashicorp/aws&quot;] -->
<g id="edge27" class="edge">
<title>[root] aws_vpc.main (expand)&#45;&gt;[root] provider[&quot;registry.terraform.io/hashicorp/aws&quot;]</title>
<path fill="none" stroke="black" d="M423.88,-71.83C423.88,-71.83 423.88,-44.52 423.88,-44.52"/>
<polygon fill="black" stroke="black" points="427.38,-44.52 423.88,-34.52 420.38,-44.52 427.38,-44.52"/>
</g>
<!-- [root] provider[&quot;registry.terraform.io/hashicorp/aws&quot;] (close) -->
<g id="node28" class="node">
<title>[root] provider[&quot;registry.terraform.io/hashicorp/aws&quot;] (close)</title>
<ellipse fill="none" stroke="black" cx="857.88" cy="-522" rx="238.16" ry="18"/>
<text xml:space="preserve" text-anchor="middle" x="857.88" y="-516.95" font-family="Times,serif" font-size="14.00">[root] provider[&quot;registry.terraform.io/hashicorp/aws&quot;] (close)</text>
</g>
<!-- [root] provider[&quot;registry.terraform.io/hashicorp/aws&quot;] (close)&#45;&gt;[root] aws_nat_gateway.main -->
<g id="edge29" class="edge">
<title>[root] provider[&quot;registry.terraform.io/hashicorp/aws&quot;] (close)&#45;&gt;[root] aws_nat_gateway.main</title>
<path fill="none" stroke="black" d="M649.43,-531C437.11,-531 138.88,-531 138.88,-531 138.88,-531 138.88,-479.89 138.88,-479.89"/>
<polygon fill="black" stroke="black" points="142.38,-479.89 138.88,-469.89 135.38,-479.89 142.38,-479.89"/>
</g>
<!-- [root] provider[&quot;registry.terraform.io/hashicorp/aws&quot;] (close)&#45;&gt;[root] aws_subnet.private_data_a -->
<g id="edge30" class="edge">
<title>[root] provider[&quot;registry.terraform.io/hashicorp/aws&quot;] (close)&#45;&gt;[root] aws_subnet.private_data_a</title>
<path fill="none" stroke="black" d="M619.51,-522C471.72,-522 309.88,-522 309.88,-522 309.88,-522 309.88,-479.68 309.88,-479.68"/>
<polygon fill="black" stroke="black" points="313.38,-479.68 309.88,-469.68 306.38,-479.68 313.38,-479.68"/>
</g>
<!-- [root] provider[&quot;registry.terraform.io/hashicorp/aws&quot;] (close)&#45;&gt;[root] aws_subnet.private_data_b -->
<g id="edge31" class="edge">
<title>[root] provider[&quot;registry.terraform.io/hashicorp/aws&quot;] (close)&#45;&gt;[root] aws_subnet.private_data_b</title>
<path fill="none" stroke="black" d="M649.45,-513C566.72,-513 490.88,-513 490.88,-513 490.88,-513 490.88,-479.74 490.88,-479.74"/>
<polygon fill="black" stroke="black" points="494.38,-479.74 490.88,-469.74 487.38,-479.74 494.38,-479.74"/>
</g>
<!-- [root] provider[&quot;registry.terraform.io/hashicorp/aws&quot;] (close)&#45;&gt;[root] aws_subnet.private_data_c -->
<g id="edge32" class="edge">
<title>[root] provider[&quot;registry.terraform.io/hashicorp/aws&quot;] (close)&#45;&gt;[root] aws_subnet.private_data_c</title>
<path fill="none" stroke="black" d="M686.36,-509.46C686.36,-509.46 686.36,-479.85 686.36,-479.85"/>
<polygon fill="black" stroke="black" points="689.86,-479.85 686.36,-469.85 682.86,-479.85 689.86,-479.85"/>
</g>
<!-- [root] provider[&quot;registry.terraform.io/hashicorp/aws&quot;] (close)&#45;&gt;[root] aws_subnet.private_egress_a -->
<g id="edge33" class="edge">
<title>[root] provider[&quot;registry.terraform.io/hashicorp/aws&quot;] (close)&#45;&gt;[root] aws_subnet.private_egress_a</title>
<path fill="none" stroke="black" d="M857.88,-503.83C857.88,-503.83 857.88,-479.93 857.88,-479.93"/>
<polygon fill="black" stroke="black" points="861.38,-479.93 857.88,-469.93 854.38,-479.93 861.38,-479.93"/>
</g>
<!-- [root] provider[&quot;registry.terraform.io/hashicorp/aws&quot;] (close)&#45;&gt;[root] aws_subnet.private_egress_b -->
<g id="edge34" class="edge">
<title>[root] provider[&quot;registry.terraform.io/hashicorp/aws&quot;] (close)&#45;&gt;[root] aws_subnet.private_egress_b</title>
<path fill="none" stroke="black" d="M1029.39,-509.46C1029.39,-509.46 1029.39,-479.85 1029.39,-479.85"/>
<polygon fill="black" stroke="black" points="1032.89,-479.85 1029.39,-469.85 1025.89,-479.85 1032.89,-479.85"/>
</g>
<!-- [root] provider[&quot;registry.terraform.io/hashicorp/aws&quot;] (close)&#45;&gt;[root] aws_subnet.private_egress_c -->
<g id="edge35" class="edge">
<title>[root] provider[&quot;registry.terraform.io/hashicorp/aws&quot;] (close)&#45;&gt;[root] aws_subnet.private_egress_c</title>
<path fill="none" stroke="black" d="M1066.17,-513C1156.44,-513 1241.88,-513 1241.88,-513 1241.88,-513 1241.88,-479.74 1241.88,-479.74"/>
<polygon fill="black" stroke="black" points="1245.38,-479.74 1241.88,-469.74 1238.38,-479.74 1245.38,-479.74"/>
</g>
<!-- [root] provider[&quot;registry.terraform.io/hashicorp/aws&quot;] (close)&#45;&gt;[root] aws_subnet.public_a -->
<g id="edge36" class="edge">
<title>[root] provider[&quot;registry.terraform.io/hashicorp/aws&quot;] (close)&#45;&gt;[root] aws_subnet.public_a</title>
<path fill="none" stroke="black" d="M1096.41,-522C1246.08,-522 1410.88,-522 1410.88,-522 1410.88,-522 1410.88,-479.68 1410.88,-479.68"/>
<polygon fill="black" stroke="black" points="1414.38,-479.68 1410.88,-469.68 1407.38,-479.68 1414.38,-479.68"/>
</g>
<!-- [root] provider[&quot;registry.terraform.io/hashicorp/aws&quot;] (close)&#45;&gt;[root] aws_subnet.public_b -->
<g id="edge37" class="edge">
<title>[root] provider[&quot;registry.terraform.io/hashicorp/aws&quot;] (close)&#45;&gt;[root] aws_subnet.public_b</title>
<path fill="none" stroke="black" d="M1066.3,-531C1272.94,-531 1558.88,-531 1558.88,-531 1558.88,-531 1558.88,-479.89 1558.88,-479.89"/>
<polygon fill="black" stroke="black" points="1562.38,-479.89 1558.88,-469.89 1555.38,-479.89 1562.38,-479.89"/>
</g>
<!-- [root] root -->
<g id="node29" class="node">
<title>[root] root</title>
<ellipse fill="none" stroke="black" cx="857.88" cy="-594" rx="49.3" ry="18"/>
<text xml:space="preserve" text-anchor="middle" x="857.88" y="-588.95" font-family="Times,serif" font-size="14.00">[root] root</text>
</g>
<!-- [root] root&#45;&gt;[root] provider[&quot;registry.terraform.io/hashicorp/aws&quot;] (close) -->
<g id="edge38" class="edge">
<title>[root] root&#45;&gt;[root] provider[&quot;registry.terraform.io/hashicorp/aws&quot;] (close)</title>
<path fill="none" stroke="black" d="M857.88,-575.83C857.88,-575.83 857.88,-551.93 857.88,-551.93"/>
<polygon fill="black" stroke="black" points="861.38,-551.93 857.88,-541.93 854.38,-551.93 861.38,-551.93"/>
</g>
</g>
</svg>
