<?xml version="1.0" encoding="UTF-8" standalone="no"?>
<!DOCTYPE svg PUBLIC "-//W3C//DTD SVG 1.1//EN"
 "http://www.w3.org/Graphics/SVG/1.1/DTD/svg11.dtd">
<!-- Generated by graphviz version 14.1.0 (20251206.1807)
 -->
<!-- Pages: 1 -->
<svg width="1912pt" height="1196pt"
 viewBox="0.00 0.00 1912.00 1196.00" xmlns="http://www.w3.org/2000/svg" xmlns:xlink="http://www.w3.org/1999/xlink">
<g id="graph0" class="graph" transform="scale(1 1) rotate(0) translate(4 1192)">
<polygon fill="white" stroke="none" points="-4,4 -4,-1192 1907.88,-1192 1907.88,4 -4,4"/>
<!-- [root] aws_eip.main -->
<g id="node1" class="node">
<title>[root] aws_eip.main</title>
<polygon fill="none" stroke="black" points="91.75,-612 0,-612 0,-576 91.75,-576 91.75,-612"/>
<text xml:space="preserve" text-anchor="middle" x="45.88" y="-588.95" font-family="Times,serif" font-size="14.00">aws_eip.main</text>
</g>
<!-- [root] aws_eip.main (expand) -->
<g id="node2" class="node">
<title>[root] aws_eip.main (expand)</title>
<polygon fill="none" stroke="black" points="429.75,-324 338,-324 338,-288 429.75,-288 429.75,-324"/>
<text xml:space="preserve" text-anchor="middle" x="383.88" y="-300.95" font-family="Times,serif" font-size="14.00">aws_eip.main</text>
</g>
<!-- [root] aws_eip.main&#45;&gt;[root] aws_eip.main (expand) -->
<g id="edge2" class="edge">
<title>[root] aws_eip.main&#45;&gt;[root] aws_eip.main (expand)</title>
<path fill="none" stroke="black" d="M45.88,-575.55C45.88,-511.98 45.88,-306 45.88,-306 45.88,-306 326.07,-306 326.07,-306"/>
<polygon fill="black" stroke="black" points="326.07,-309.5 336.07,-306 326.07,-302.5 326.07,-309.5"/>
</g>
<!-- [root] provider[&quot;registry.terraform.io/hashicorp/aws&quot;] -->
<g id="node27" class="node">
<title>[root] provider[&quot;registry.terraform.io/hashicorp/aws&quot;]</title>
<polygon fill="none" stroke="black" points="451.88,-36 187.44,-18 451.87,0 716.31,-18 451.88,-36"/>
<text xml:space="preserve" text-anchor="middle" x="451.88" y="-12.95" font-family="Times,serif" font-size="14.00">provider[&quot;registry.terraform.io/hashicorp/aws&quot;]</text>
</g>
<!-- [root] aws_eip.main (expand)&#45;&gt;[root] provider[&quot;registry.terraform.io/hashicorp/aws&quot;] -->
<g id="edge1" class="edge">
<title>[root] aws_eip.main (expand)&#45;&gt;[root] provider[&quot;registry.terraform.io/hashicorp/aws&quot;]</title>
<path fill="none" stroke="black" d="M383.88,-287.55C383.88,-287.55 383.88,-43.27 383.88,-43.27"/>
<polygon fill="black" stroke="black" points="387.38,-43.27 383.88,-33.27 380.38,-43.27 387.38,-43.27"/>
</g>
<!-- [root] aws_internet_gateway.main -->
<g id="node3" class="node">
<title>[root] aws_internet_gateway.main</title>
<polygon fill="none" stroke="black" points="302.62,-612 135.12,-612 135.12,-576 302.62,-576 302.62,-612"/>
<text xml:space="preserve" text-anchor="middle" x="218.88" y="-588.95" font-family="Times,serif" font-size="14.00">aws_internet_gateway.main</text>
</g>
<!-- [root] aws_internet_gateway.main (expand) -->
<g id="node4" class="node">
<title>[root] aws_internet_gateway.main (expand)</title>
<polygon fill="none" stroke="black" points="302.62,-468 135.12,-468 135.12,-432 302.62,-432 302.62,-468"/>
<text xml:space="preserve" text-anchor="middle" x="218.88" y="-444.95" font-family="Times,serif" font-size="14.00">aws_internet_gateway.main</text>
</g>
<!-- [root] aws_internet_gateway.main&#45;&gt;[root] aws_internet_gateway.main (expand) -->
<g id="edge4" class="edge">
<title>[root] aws_internet_gateway.main&#45;&gt;[root] aws_internet_gateway.main (expand)</title>
<path fill="none" stroke="black" d="M218.88,-575.76C218.88,-575.76 218.88,-479.6 218.88,-479.6"/>
<polygon fill="black" stroke="black" points="222.38,-479.6 218.88,-469.6 215.38,-479.6 222.38,-479.6"/>
</g>
<!-- [root] aws_vpc.main -->
<g id="node25" class="node">
<title>[root] aws_vpc.main</title>
<polygon fill="none" stroke="black" points="880.25,-324 785.5,-324 785.5,-288 880.25,-288 880.25,-324"/>
<text xml:space="preserve" text-anchor="middle" x="832.88" y="-300.95" font-family="Times,serif" font-size="14.00">aws_vpc.main</text>
</g>
<!-- [root] aws_internet_gateway.main (expand)&#45;&gt;[root] aws_vpc.main -->
<g id="edge3" class="edge">
<title>[root] aws_internet_gateway.main (expand)&#45;&gt;[root] aws_vpc.main</title>
<path fill="none" stroke="black" d="M245.03,-431.83C245.03,-410.5 245.03,-378 245.03,-378 245.03,-378 817.08,-378 817.08,-378 817.08,-378 817.08,-335.68 817.08,-335.68"/>
<polygon fill="black" stroke="black" points="820.58,-335.68 817.08,-325.68 813.58,-335.68 820.58,-335.68"/>
</g>
<!-- [root] aws_nat_gateway.main -->
<g id="node5" class="node">
<title>[root] aws_nat_gateway.main</title>
<polygon fill="none" stroke="black" points="290.25,-900 147.5,-900 147.5,-864 290.25,-864 290.25,-900"/>
<text xml:space="preserve" text-anchor="middle" x="218.88" y="-876.95" font-family="Times,serif" font-size="14.00">aws_nat_gateway.main</text>
</g>
<!-- [root] aws_nat_gateway.main (expand) -->
<g id="node6" class="node">
<title>[root] aws_nat_gateway.main (expand)</title>
<polygon fill="none" stroke="black" points="290.25,-756 147.5,-756 147.5,-720 290.25,-720 290.25,-756"/>
<text xml:space="preserve" text-anchor="middle" x="218.88" y="-732.95" font-family="Times,serif" font-size="14.00">aws_nat_gateway.main</text>
</g>
<!-- [root] aws_nat_gateway.main&#45;&gt;[root] aws_nat_gateway.main (expand) -->
<g id="edge8" class="edge">
<title>[root] aws_nat_gateway.main&#45;&gt;[root] aws_nat_gateway.main (expand)</title>
<path fill="none" stroke="black" d="M218.88,-863.76C218.88,-863.76 218.88,-767.6 218.88,-767.6"/>
<polygon fill="black" stroke="black" points="222.38,-767.6 218.88,-757.6 215.38,-767.6 222.38,-767.6"/>
</g>
<!-- [root] aws_nat_gateway.main (expand)&#45;&gt;[root] aws_eip.main -->
<g id="edge5" class="edge">
<title>[root] aws_nat_gateway.main (expand)&#45;&gt;[root] aws_eip.main</title>
<path fill="none" stroke="black" d="M147.01,-738C99.48,-738 45.88,-738 45.88,-738 45.88,-738 45.88,-623.75 45.88,-623.75"/>
<polygon fill="black" stroke="black" points="49.38,-623.75 45.88,-613.75 42.38,-623.75 49.38,-623.75"/>
</g>
<!-- [root] aws_nat_gateway.main (expand)&#45;&gt;[root] aws_internet_gateway.main -->
<g id="edge6" class="edge">
<title>[root] aws_nat_gateway.main (expand)&#45;&gt;[root] aws_internet_gateway.main</title>
<path fill="none" stroke="black" d="M218.88,-719.76C218.88,-719.76 218.88,-623.6 218.88,-623.6"/>
<polygon fill="black" stroke="black" points="222.38,-623.6 218.88,-613.6 215.38,-623.6 222.38,-623.6"/>
</g>
<!-- [root] aws_subnet.public_c -->
<g id="node23" class="node">
<title>[root] aws_subnet.public_c</title>
<polygon fill="none" stroke="black" points="474.5,-612 345.25,-612 345.25,-576 474.5,-576 474.5,-612"/>
<text xml:space="preserve" text-anchor="middle" x="409.88" y="-588.95" font-family="Times,serif" font-size="14.00">aws_subnet.public_c</text>
</g>
<!-- [root] aws_nat_gateway.main (expand)&#45;&gt;[root] aws_subnet.public_c -->
<g id="edge7" class="edge">
<title>[root] aws_nat_gateway.main (expand)&#45;&gt;[root] aws_subnet.public_c</title>
<path fill="none" stroke="black" d="M290.48,-738C329.94,-738 371,-738 371,-738 371,-738 371,-623.75 371,-623.75"/>
<polygon fill="black" stroke="black" points="374.5,-623.75 371,-613.75 367.5,-623.75 374.5,-623.75"/>
</g>
<!-- [root] aws_subnet.private_data_a -->
<g id="node7" class="node">
<title>[root] aws_subnet.private_data_a</title>
<polygon fill="none" stroke="black" points="496,-900 333.75,-900 333.75,-864 496,-864 496,-900"/>
<text xml:space="preserve" text-anchor="middle" x="414.88" y="-876.95" font-family="Times,serif" font-size="14.00">aws_subnet.private_data_a</text>
</g>
<!-- [root] aws_subnet.private_data_a (expand) -->
<g id="node8" class="node">
<title>[root] aws_subnet.private_data_a (expand)</title>
<polygon fill="none" stroke="black" points="559,-756 396.75,-756 396.75,-720 559,-720 559,-756"/>
<text xml:space="preserve" text-anchor="middle" x="477.88" y="-732.95" font-family="Times,serif" font-size="14.00">aws_subnet.private_data_a</text>
</g>
<!-- [root] aws_subnet.private_data_a&#45;&gt;[root] aws_subnet.private_data_a (expand) -->
<g id="edge10" class="edge">
<title>[root] aws_subnet.private_data_a&#45;&gt;[root] aws_subnet.private_data_a (expand)</title>
<path fill="none" stroke="black" d="M446.38,-863.76C446.38,-863.76 446.38,-767.6 446.38,-767.6"/>
<polygon fill="black" stroke="black" points="449.88,-767.6 446.38,-757.6 442.88,-767.6 449.88,-767.6"/>
</g>
<!-- [root] aws_subnet.private_data_a (expand)&#45;&gt;[root] aws_vpc.main -->
<g id="edge9" class="edge">
<title>[root] aws_subnet.private_data_a (expand)&#45;&gt;[root] aws_vpc.main</title>
<path fill="none" stroke="black" d="M502.67,-719.61C502.67,-637.69 502.67,-310 502.67,-310 502.67,-310 773.7,-310 773.7,-310"/>
<polygon fill="black" stroke="black" points="773.7,-313.5 783.7,-310 773.7,-306.5 773.7,-313.5"/>
</g>
<!-- [root] aws_subnet.private_data_b -->
<g id="node9" class="node">
<title>[root] aws_subnet.private_data_b</title>
<polygon fill="none" stroke="black" points="702.38,-900 539.38,-900 539.38,-864 702.38,-864 702.38,-900"/>
<text xml:space="preserve" text-anchor="middle" x="620.88" y="-876.95" font-family="Times,serif" font-size="14.00">aws_subnet.private_data_b</text>
</g>
<!-- [root] aws_subnet.private_data_b (expand) -->
<g id="node10" class="node">
<title>[root] aws_subnet.private_data_b (expand)</title>
<polygon fill="none" stroke="black" points="768.38,-612 605.38,-612 605.38,-576 768.38,-576 768.38,-612"/>
<text xml:space="preserve" text-anchor="middle" x="686.88" y="-588.95" font-family="Times,serif" font-size="14.00">aws_subnet.private_data_b</text>
</g>
<!-- [root] aws_subnet.private_data_b&#45;&gt;[root] aws_subnet.private_data_b (expand) -->
<g id="edge12" class="edge">
<title>[root] aws_subnet.private_data_b&#45;&gt;[root] aws_subnet.private_data_b (expand)</title>
<path fill="none" stroke="black" d="M653.88,-863.55C653.88,-863.55 653.88,-623.81 653.88,-623.81"/>
<polygon fill="black" stroke="black" points="657.38,-623.81 653.88,-613.81 650.38,-623.81 657.38,-623.81"/>
</g>
<!-- [root] aws_subnet.private_data_b (expand)&#45;&gt;[root] aws_vpc.main -->
<g id="edge11" class="edge">
<title>[root] aws_subnet.private_data_b (expand)&#45;&gt;[root] aws_vpc.main</title>
<path fill="none" stroke="black" d="M734.03,-575.83C734.03,-514.2 734.03,-317 734.03,-317 734.03,-317 773.68,-317 773.68,-317"/>
<polygon fill="black" stroke="black" points="773.68,-320.5 783.68,-317 773.68,-313.5 773.68,-320.5"/>
</g>
<!-- [root] aws_subnet.private_data_c -->
<g id="node11" class="node">
<title>[root] aws_subnet.private_data_c</title>
<polygon fill="none" stroke="black" points="908,-900 745.75,-900 745.75,-864 908,-864 908,-900"/>
<text xml:space="preserve" text-anchor="middle" x="826.88" y="-876.95" font-family="Times,serif" font-size="14.00">aws_subnet.private_data_c</text>
</g>
<!-- [root] aws_subnet.private_data_c (expand) -->
<g id="node12" class="node">
<title>[root] aws_subnet.private_data_c (expand)</title>
<polygon fill="none" stroke="black" points="914,-468 751.75,-468 751.75,-432 914,-432 914,-468"/>
<text xml:space="preserve" text-anchor="middle" x="832.88" y="-444.95" font-family="Times,serif" font-size="14.00">aws_subnet.private_data_c</text>
</g>
<!-- [root] aws_subnet.private_data_c&#45;&gt;[root] aws_subnet.private_data_c (expand) -->
<g id="edge14" class="edge">
<title>[root] aws_subnet.private_data_c&#45;&gt;[root] aws_subnet.private_data_c (expand)</title>
<path fill="none" stroke="black" d="M838.19,-863.71C838.19,-863.71 838.19,-479.56 838.19,-479.56"/>
<polygon fill="black" stroke="black" points="841.69,-479.56 838.19,-469.56 834.69,-479.56 841.69,-479.56"/>
</g>
<!-- [root] aws_subnet.private_data_c (expand)&#45;&gt;[root] aws_vpc.main -->
<g id="edge13" class="edge">
<title>[root] aws_subnet.private_data_c (expand)&#45;&gt;[root] aws_vpc.main</title>
<path fill="none" stroke="black" d="M848.67,-431.76C848.67,-431.76 848.67,-335.6 848.67,-335.6"/>
<polygon fill="black" stroke="black" points="852.17,-335.6 848.67,-325.6 845.17,-335.6 852.17,-335.6"/>
</g>
<!-- [root] aws_subnet.private_egress_a -->
<g id="node13" class="node">
<title>[root] aws_subnet.private_egress_a</title>
<polygon fill="none" stroke="black" points="1124.62,-900 951.12,-900 951.12,-864 1124.62,-864 1124.62,-900"/>
<text xml:space="preserve" text-anchor="middle" x="1037.88" y="-876.95" font-family="Times,serif" font-size="14.00">aws_subnet.private_egress_a</text>
</g>
<!-- [root] aws_subnet.private_egress_a (expand) -->
<g id="node14" class="node">
<title>[root] aws_subnet.private_egress_a (expand)</title>
<polygon fill="none" stroke="black" points="1130.62,-468 957.12,-468 957.12,-432 1130.62,-432 1130.62,-468"/>
<text xml:space="preserve" text-anchor="middle" x="1043.88" y="-444.95" font-family="Times,serif" font-size="14.00">aws_subnet.private_egress_a</text>
</g>
<!-- [root] aws_subnet.private_egress_a&#45;&gt;[root] aws_subnet.private_egress_a (expand) -->
<g id="edge16" class="edge">
<title>[root] aws_subnet.private_egress_a&#45;&gt;[root] aws_subnet.private_egress_a (expand)</title>
<path fill="none" stroke="black" d="M1040.88,-863.71C1040.88,-863.71 1040.88,-479.56 1040.88,-479.56"/>
<polygon fill="black" stroke="black" points="1044.38,-479.56 1040.88,-469.56 1037.38,-479.56 1044.38,-479.56"/>
</g>
<!-- [root] aws_subnet.private_egress_a (expand)&#45;&gt;[root] aws_vpc.main -->
<g id="edge15" class="edge">
<title>[root] aws_subnet.private_egress_a (expand)&#45;&gt;[root] aws_vpc.main</title>
<path fill="none" stroke="black" d="M1043.88,-431.65C1043.88,-395.38 1043.88,-318 1043.88,-318 1043.88,-318 892,-318 892,-318"/>
<polygon fill="black" stroke="black" points="892,-314.5 882,-318 892,-321.5 892,-314.5"/>
</g>
<!-- [root] aws_subnet.private_egress_b -->
<g id="node15" class="node">
<title>[root] aws_subnet.private_egress_b</title>
<polygon fill="none" stroke="black" points="1342,-900 1167.75,-900 1167.75,-864 1342,-864 1342,-900"/>
<text xml:space="preserve" text-anchor="middle" x="1254.88" y="-876.95" font-family="Times,serif" font-size="14.00">aws_subnet.private_egress_b</text>
</g>
<!-- [root] aws_subnet.private_egress_b (expand) -->
<g id="node16" class="node">
<title>[root] aws_subnet.private_egress_b (expand)</title>
<polygon fill="none" stroke="black" points="1316,-756 1141.75,-756 1141.75,-720 1316,-720 1316,-756"/>
<text xml:space="preserve" text-anchor="middle" x="1228.88" y="-732.95" font-family="Times,serif" font-size="14.00">aws_subnet.private_egress_b</text>
</g>
<!-- [root] aws_subnet.private_egress_b&#45;&gt;[root] aws_subnet.private_egress_b (expand) -->
<g id="edge18" class="edge">
<title>[root] aws_subnet.private_egress_b&#45;&gt;[root] aws_subnet.private_egress_b (expand)</title>
<path fill="none" stroke="black" d="M1241.88,-863.76C1241.88,-863.76 1241.88,-767.6 1241.88,-767.6"/>
<polygon fill="black" stroke="black" points="1245.38,-767.6 1241.88,-757.6 1238.38,-767.6 1245.38,-767.6"/>
</g>
<!-- [root] aws_subnet.private_egress_b (expand)&#45;&gt;[root] aws_vpc.main -->
<g id="edge17" class="edge">
<title>[root] aws_subnet.private_egress_b (expand)&#45;&gt;[root] aws_vpc.main</title>
<path fill="none" stroke="black" d="M1228.88,-719.7C1228.88,-638.16 1228.88,-312 1228.88,-312 1228.88,-312 892.16,-312 892.16,-312"/>
<polygon fill="black" stroke="black" points="892.16,-308.5 882.16,-312 892.16,-315.5 892.16,-308.5"/>
</g>
<!-- [root] aws_subnet.private_egress_c -->
<g id="node17" class="node">
<title>[root] aws_subnet.private_egress_c</title>
<polygon fill="none" stroke="black" points="1558.62,-900 1385.12,-900 1385.12,-864 1558.62,-864 1558.62,-900"/>
<text xml:space="preserve" text-anchor="middle" x="1471.88" y="-876.95" font-family="Times,serif" font-size="14.00">aws_subnet.private_egress_c</text>
</g>
<!-- [root] aws_subnet.private_egress_c (expand) -->
<g id="node18" class="node">
<title>[root] aws_subnet.private_egress_c (expand)</title>
<polygon fill="none" stroke="black" points="1547.62,-756 1374.12,-756 1374.12,-720 1547.62,-720 1547.62,-756"/>
<text xml:space="preserve" text-anchor="middle" x="1460.88" y="-732.95" font-family="Times,serif" font-size="14.00">aws_subnet.private_egress_c</text>
</g>
<!-- [root] aws_subnet.private_egress_c&#45;&gt;[root] aws_subnet.private_egress_c (expand) -->
<g id="edge20" class="edge">
<title>[root] aws_subnet.private_egress_c&#45;&gt;[root] aws_subnet.private_egress_c (expand)</title>
<path fill="none" stroke="black" d="M1466.38,-863.76C1466.38,-863.76 1466.38,-767.6 1466.38,-767.6"/>
<polygon fill="black" stroke="black" points="1469.88,-767.6 1466.38,-757.6 1462.88,-767.6 1469.88,-767.6"/>
</g>
<!-- [root] aws_subnet.private_egress_c (expand)&#45;&gt;[root] aws_vpc.main -->
<g id="edge19" class="edge">
<title>[root] aws_subnet.private_egress_c (expand)&#45;&gt;[root] aws_vpc.main</title>
<path fill="none" stroke="black" d="M1460.88,-719.71C1460.88,-637.49 1460.88,-306 1460.88,-306 1460.88,-306 892.11,-306 892.11,-306"/>
<polygon fill="black" stroke="black" points="892.11,-302.5 882.11,-306 892.11,-309.5 892.11,-302.5"/>
</g>
<!-- [root] aws_subnet.public_a -->
<g id="node19" class="node">
<title>[root] aws_subnet.public_a</title>
<polygon fill="none" stroke="black" points="1730.5,-900 1601.25,-900 1601.25,-864 1730.5,-864 1730.5,-900"/>
<text xml:space="preserve" text-anchor="middle" x="1665.88" y="-876.95" font-family="Times,serif" font-size="14.00">aws_subnet.public_a</text>
</g>
<!-- [root] aws_subnet.public_a (expand) -->
<g id="node20" class="node">
<title>[root] aws_subnet.public_a (expand)</title>
<polygon fill="none" stroke="black" points="1726.5,-756 1597.25,-756 1597.25,-720 1726.5,-720 1726.5,-756"/>
<text xml:space="preserve" text-anchor="middle" x="1661.88" y="-732.95" font-family="Times,serif" font-size="14.00">aws_subnet.public_a</text>
</g>
<!-- [root] aws_subnet.public_a&#45;&gt;[root] aws_subnet.public_a (expand) -->
<g id="edge22" class="edge">
<title>[root] aws_subnet.public_a&#45;&gt;[root] aws_subnet.public_a (expand)</title>
<path fill="none" stroke="black" d="M1663.88,-863.76C1663.88,-863.76 1663.88,-767.6 1663.88,-767.6"/>
<polygon fill="black" stroke="black" points="1667.38,-767.6 1663.88,-757.6 1660.38,-767.6 1667.38,-767.6"/>
</g>
<!-- [root] aws_subnet.public_a (expand)&#45;&gt;[root] aws_vpc.main -->
<g id="edge21" class="edge">
<title>[root] aws_subnet.public_a (expand)&#45;&gt;[root] aws_vpc.main</title>
<path fill="none" stroke="black" d="M1653.06,-719.74C1653.06,-636.84 1653.06,-300 1653.06,-300 1653.06,-300 892.03,-300 892.03,-300"/>
<polygon fill="black" stroke="black" points="892.03,-296.5 882.03,-300 892.03,-303.5 892.03,-296.5"/>
</g>
<!-- [root] aws_subnet.public_b -->
<g id="node21" class="node">
<title>[root] aws_subnet.public_b</title>
<polygon fill="none" stroke="black" points="1903.88,-900 1773.88,-900 1773.88,-864 1903.88,-864 1903.88,-900"/>
<text xml:space="preserve" text-anchor="middle" x="1838.88" y="-876.95" font-family="Times,serif" font-size="14.00">aws_subnet.public_b</text>
</g>
<!-- [root] aws_subnet.public_b (expand) -->
<g id="node22" class="node">
<title>[root] aws_subnet.public_b (expand)</title>
<polygon fill="none" stroke="black" points="1838.88,-612 1708.88,-612 1708.88,-576 1838.88,-576 1838.88,-612"/>
<text xml:space="preserve" text-anchor="middle" x="1773.88" y="-588.95" font-family="Times,serif" font-size="14.00">aws_subnet.public_b</text>
</g>
<!-- [root] aws_subnet.public_b&#45;&gt;[root] aws_subnet.public_b (expand) -->
<g id="edge24" class="edge">
<title>[root] aws_subnet.public_b&#45;&gt;[root] aws_subnet.public_b (expand)</title>
<path fill="none" stroke="black" d="M1806.38,-863.55C1806.38,-863.55 1806.38,-623.81 1806.38,-623.81"/>
<polygon fill="black" stroke="black" points="1809.88,-623.81 1806.38,-613.81 1802.88,-623.81 1809.88,-623.81"/>
</g>
<!-- [root] aws_subnet.public_b (expand)&#45;&gt;[root] aws_vpc.main -->
<g id="edge23" class="edge">
<title>[root] aws_subnet.public_b (expand)&#45;&gt;[root] aws_vpc.main</title>
<path fill="none" stroke="black" d="M1773.88,-575.69C1773.88,-510.55 1773.88,-294 1773.88,-294 1773.88,-294 892.02,-294 892.02,-294"/>
<polygon fill="black" stroke="black" points="892.02,-290.5 882.02,-294 892.02,-297.5 892.02,-290.5"/>
</g>
<!-- [root] aws_subnet.public_c (expand) -->
<g id="node24" class="node">
<title>[root] aws_subnet.public_c (expand)</title>
<polygon fill="none" stroke="black" points="474.5,-468 345.25,-468 345.25,-432 474.5,-432 474.5,-468"/>
<text xml:space="preserve" text-anchor="middle" x="409.88" y="-444.95" font-family="Times,serif" font-size="14.00">aws_subnet.public_c</text>
</g>
<!-- [root] aws_subnet.public_c&#45;&gt;[root] aws_subnet.public_c (expand) -->
<g id="edge26" class="edge">
<title>[root] aws_subnet.public_c&#45;&gt;[root] aws_subnet.public_c (expand)</title>
<path fill="none" stroke="black" d="M409.88,-575.76C409.88,-575.76 409.88,-479.6 409.88,-479.6"/>
<polygon fill="black" stroke="black" points="413.38,-479.6 409.88,-469.6 406.38,-479.6 413.38,-479.6"/>
</g>
<!-- [root] aws_subnet.public_c (expand)&#45;&gt;[root] aws_vpc.main -->
<g id="edge25" class="edge">
<title>[root] aws_subnet.public_c (expand)&#45;&gt;[root] aws_vpc.main</title>
<path fill="none" stroke="black" d="M470.5,-431.55C470.5,-391.88 470.5,-302 470.5,-302 470.5,-302 773.61,-302 773.61,-302"/>
<polygon fill="black" stroke="black" points="773.61,-305.5 783.61,-302 773.61,-298.5 773.61,-305.5"/>
</g>
<!-- [root] aws_vpc.main (expand) -->
<g id="node26" class="node">
<title>[root] aws_vpc.main (expand)</title>
<polygon fill="none" stroke="black" points="561.25,-180 466.5,-180 466.5,-144 561.25,-144 561.25,-180"/>
<text xml:space="preserve" text-anchor="middle" x="513.88" y="-156.95" font-family="Times,serif" font-size="14.00">aws_vpc.main</text>
</g>
<!-- [root] aws_vpc.main&#45;&gt;[root] aws_vpc.main (expand) -->
<g id="edge28" class="edge">
<title>[root] aws_vpc.main&#45;&gt;[root] aws_vpc.main (expand)</title>
<path fill="none" stroke="black" d="M785.02,-295C699.85,-295 530.83,-295 530.83,-295 530.83,-295 530.83,-192.01 530.83,-192.01"/>
<polygon fill="black" stroke="black" points="534.33,-192.01 530.83,-182.01 527.33,-192.01 534.33,-192.01"/>
</g>
<!-- [root] aws_vpc.main (expand)&#45;&gt;[root] provider[&quot;registry.terraform.io/hashicorp/aws&quot;] -->
<g id="edge27" class="edge">
<title>[root] aws_vpc.main (expand)&#45;&gt;[root] provider[&quot;registry.terraform.io/hashicorp/aws&quot;]</title>
<path fill="none" stroke="black" d="M513.88,-143.76C513.88,-143.76 513.88,-43.71 513.88,-43.71"/>
<polygon fill="black" stroke="black" points="517.38,-43.71 513.88,-33.71 510.38,-43.71 517.38,-43.71"/>
</g>
<!-- [root] provider[&quot;registry.terraform.io/hashicorp/aws&quot;] (close) -->
<g id="node28" class="node">
<title>[root] provider[&quot;registry.terraform.io/hashicorp/aws&quot;] (close)</title>
<ellipse fill="none" stroke="black" cx="1037.88" cy="-1026" rx="238.16" ry="18"/>
<text xml:space="preserve" text-anchor="middle" x="1037.88" y="-1020.95" font-family="Times,serif" font-size="14.00">[root] provider[&quot;registry.terraform.io/hashicorp/aws&quot;] (close)</text>
</g>
<!-- [root] provider[&quot;registry.terraform.io/hashicorp/aws&quot;] (close)&#45;&gt;[root] aws_nat_gateway.main -->
<g id="edge29" class="edge">
<title>[root] provider[&quot;registry.terraform.io/hashicorp/aws&quot;] (close)&#45;&gt;[root] aws_nat_gateway.main</title>
<path fill="none" stroke="black" d="M829.62,-1035C586.97,-1035 218.88,-1035 218.88,-1035 218.88,-1035 218.88,-911.97 218.88,-911.97"/>
<polygon fill="black" stroke="black" points="222.38,-911.97 218.88,-901.97 215.38,-911.97 222.38,-911.97"/>
</g>
<!-- [root] provider[&quot;registry.terraform.io/hashicorp/aws&quot;] (close)&#45;&gt;[root] aws_subnet.private_data_a -->
<g id="edge30" class="edge">
<title>[root] provider[&quot;registry.terraform.io/hashicorp/aws&quot;] (close)&#45;&gt;[root] aws_subnet.private_data_a</title>
<path fill="none" stroke="black" d="M799.23,-1026C623.45,-1026 414.88,-1026 414.88,-1026 414.88,-1026 414.88,-911.75 414.88,-911.75"/>
<polygon fill="black" stroke="black" points="418.38,-911.75 414.88,-901.75 411.38,-911.75 418.38,-911.75"/>
</g>
<!-- [root] provider[&quot;registry.terraform.io/hashicorp/aws&quot;] (close)&#45;&gt;[root] aws_subnet.private_data_b -->
<g id="edge31" class="edge">
<title>[root] provider[&quot;registry.terraform.io/hashicorp/aws&quot;] (close)&#45;&gt;[root] aws_subnet.private_data_b</title>
<path fill="none" stroke="black" d="M829.38,-1017C725.12,-1017 620.88,-1017 620.88,-1017 620.88,-1017 620.88,-912 620.88,-912"/>
<polygon fill="black" stroke="black" points="624.38,-912 620.88,-902 617.38,-912 624.38,-912"/>
</g>
<!-- [root] provider[&quot;registry.terraform.io/hashicorp/aws&quot;] (close)&#45;&gt;[root] aws_subnet.private_data_c -->
<g id="edge32" class="edge">
<title>[root] provider[&quot;registry.terraform.io/hashicorp/aws&quot;] (close)&#45;&gt;[root] aws_subnet.private_data_c</title>
<path fill="none" stroke="black" d="M853.86,-1014.7C853.86,-1014.7 853.86,-911.83 853.86,-911.83"/>
<polygon fill="black" stroke="black" points="857.36,-911.83 853.86,-901.83 850.36,-911.83 857.36,-911.83"/>
</g>
<!-- [root] provider[&quot;registry.terraform.io/hashicorp/aws&quot;] (close)&#45;&gt;[root] aws_subnet.private_egress_a -->
<g id="edge33" class="edge">
<title>[root] provider[&quot;registry.terraform.io/hashicorp/aws&quot;] (close)&#45;&gt;[root] aws_subnet.private_egress_a</title>
<path fill="none" stroke="black" d="M1037.88,-1007.76C1037.88,-1007.76 1037.88,-911.6 1037.88,-911.6"/>
<polygon fill="black" stroke="black" points="1041.38,-911.6 1037.88,-901.6 1034.38,-911.6 1041.38,-911.6"/>
</g>
<!-- [root] provider[&quot;registry.terraform.io/hashicorp/aws&quot;] (close)&#45;&gt;[root] aws_subnet.private_egress_b -->
<g id="edge34" class="edge">
<title>[root] provider[&quot;registry.terraform.io/hashicorp/aws&quot;] (close)&#45;&gt;[root] aws_subnet.private_egress_b</title>
<path fill="none" stroke="black" d="M1221.89,-1014.7C1221.89,-1014.7 1221.89,-911.83 1221.89,-911.83"/>
<polygon fill="black" stroke="black" points="1225.39,-911.83 1221.89,-901.83 1218.39,-911.83 1225.39,-911.83"/>
</g>
<!-- [root] provider[&quot;registry.terraform.io/hashicorp/aws&quot;] (close)&#45;&gt;[root] aws_subnet.private_egress_c -->
<g id="edge35" class="edge">
<title>[root] provider[&quot;registry.terraform.io/hashicorp/aws&quot;] (close)&#45;&gt;[root] aws_subnet.private_egress_c</title>
<path fill="none" stroke="black" d="M1246.29,-1017C1357.58,-1017 1471.88,-1017 1471.88,-1017 1471.88,-1017 1471.88,-912 1471.88,-912"/>
<polygon fill="black" stroke="black" points="1475.38,-912 1471.88,-902 1468.38,-912 1475.38,-912"/>
</g>
<!-- [root] provider[&quot;registry.terraform.io/hashicorp/aws&quot;] (close)&#45;&gt;[root] aws_subnet.public_a -->
<g id="edge36" class="edge">
<title>[root] provider[&quot;registry.terraform.io/hashicorp/aws&quot;] (close)&#45;&gt;[root] aws_subnet.public_a</title>
<path fill="none" stroke="black" d="M1276.19,-1026C1453.85,-1026 1665.88,-1026 1665.88,-1026 1665.88,-1026 1665.88,-911.75 1665.88,-911.75"/>
<polygon fill="black" stroke="black" points="1669.38,-911.75 1665.88,-901.75 1662.38,-911.75 1669.38,-911.75"/>
</g>
<!-- [root] provider[&quot;registry.terraform.io/hashicorp/aws&quot;] (close)&#45;&gt;[root] aws_subnet.public_b -->
<g id="edge37" class="edge">
<title>[root] provider[&quot;registry.terraform.io/hashicorp/aws&quot;] (close)&#45;&gt;[root] aws_subnet.public_b</title>
<path fill="none" stroke="black" d="M1246.24,-1035C1483.57,-1035 1838.88,-1035 1838.88,-1035 1838.88,-1035 1838.88,-911.97 1838.88,-911.97"/>
<polygon fill="black" stroke="black" points="1842.38,-911.97 1838.88,-901.97 1835.38,-911.97 1842.38,-911.97"/>
</g>
<!-- [root] root -->
<g id="node29" class="node">
<title>[root] root</title>
<ellipse fill="none" stroke="black" cx="1037.88" cy="-1170" rx="49.3" ry="18"/>
<text xml:space="preserve" text-anchor="middle" x="1037.88" y="-1164.95" font-family="Times,serif" font-size="14.00">[root] root</text>
</g>
<!-- [root] root&#45;&gt;[root] provider[&quot;registry.terraform.io/hashicorp/aws&quot;] (close) -->
<g id="edge38" class="edge">
<title>[root] root&#45;&gt;[root] provider[&quot;registry.terraform.io/hashicorp/aws&quot;] (close)</title>
<path fill="none" stroke="black" d="M1037.88,-1151.76C1037.88,-1151.76 1037.88,-1055.6 1037.88,-1055.6"/>
<polygon fill="black" stroke="black" points="1041.38,-1055.6 1037.88,-1045.6 1034.38,-1055.6 1041.38,-1055.6"/>
</g>
</g>
</svg>
