<?xml version="1.0" encoding="UTF-8" standalone="no"?>
<!DOCTYPE svg PUBLIC "-//W3C//DTD SVG 1.1//EN"
 "http://www.w3.org/Graphics/SVG/1.1/DTD/svg11.dtd">
<!-- Generated by graphviz version 14.1.0 (20251206.1807)
 -->
<!-- Pages: 1 -->
<svg width="1632pt" height="620pt"
 viewBox="0.00 0.00 1632.00 620.00" xmlns="http://www.w3.org/2000/svg" xmlns:xlink="http://www.w3.org/1999/xlink">
<g id="graph0" class="graph" transform="scale(1 1) rotate(0) translate(4 616)">
<polygon fill="white" stroke="none" points="-4,4 -4,-616 1627.88,-616 1627.88,4 -4,4"/>
<!-- [root] aws_eip.main -->
<g id="node1" class="node">
<title>[root] aws_eip.main</title>
<polygon fill="none" stroke="black" points="91.75,-324 0,-324 0,-288 91.75,-288 91.75,-324"/>
<text xml:space="preserve" text-anchor="middle" x="45.88" y="-300.95" font-family="Times,serif" font-size="14.00">aws_eip.main</text>
</g>
<!-- [root] aws_eip.main (expand) -->
<g id="node2" class="node">
<title>[root] aws_eip.main (expand)</title>
<polygon fill="none" stroke="black" points="367.75,-180 276,-180 276,-144 367.75,-144 367.75,-180"/>
<text xml:space="preserve" text-anchor="middle" x="321.88" y="-156.95" font-family="Times,serif" font-size="14.00">aws_eip.main</text>
</g>
<!-- [root] aws_eip.main&#45;&gt;[root] aws_eip.main (expand) -->
<g id="edge2" class="edge">
<title>[root] aws_eip.main&#45;&gt;[root] aws_eip.main (expand)</title>
<path fill="none" stroke="black" d="M51.86,-287.74C59.81,-267.41 75.86,-234.1 100.88,-216 148.86,-181.28 216.57,-169.06 264.36,-164.88"/>
<polygon fill="black" stroke="black" points="264.54,-168.38 274.25,-164.12 264.01,-161.4 264.54,-168.38"/>
</g>
<!-- [root] provider[&quot;registry.terraform.io/hashicorp/aws&quot;] -->
<g id="node27" class="node">
<title>[root] provider[&quot;registry.terraform.io/hashicorp/aws&quot;]</title>
<polygon fill="none" stroke="black" points="376.88,-36 112.44,-18 376.87,0 641.31,-18 376.88,-36"/>
<text xml:space="preserve" text-anchor="middle" x="376.88" y="-12.95" font-family="Times,serif" font-size="14.00">provider[&quot;registry.terraform.io/hashicorp/aws&quot;]</text>
</g>
<!-- [root] aws_eip.main (expand)&#45;&gt;[root] provider[&quot;registry.terraform.io/hashicorp/aws&quot;] -->
<g id="edge1" class="edge">
<title>[root] aws_eip.main (expand)&#45;&gt;[root] provider[&quot;registry.terraform.io/hashicorp/aws&quot;]</title>
<path fill="none" stroke="black" d="M328.62,-143.59C338.04,-119.27 355.23,-74.89 366.34,-46.19"/>
<polygon fill="black" stroke="black" points="369.52,-47.67 369.87,-37.08 363,-45.14 369.52,-47.67"/>
</g>
<!-- [root] aws_internet_gateway.main -->
<g id="node3" class="node">
<title>[root] aws_internet_gateway.main</title>
<polygon fill="none" stroke="black" points="277.62,-324 110.12,-324 110.12,-288 277.62,-288 277.62,-324"/>
<text xml:space="preserve" text-anchor="middle" x="193.88" y="-300.95" font-family="Times,serif" font-size="14.00">aws_internet_gateway.main</text>
</g>
<!-- [root] aws_internet_gateway.main (expand) -->
<g id="node4" class="node">
<title>[root] aws_internet_gateway.main (expand)</title>
<polygon fill="none" stroke="black" points="277.62,-252 110.12,-252 110.12,-216 277.62,-216 277.62,-252"/>
<text xml:space="preserve" text-anchor="middle" x="193.88" y="-228.95" font-family="Times,serif" font-size="14.00">aws_internet_gateway.main</text>
</g>
<!-- [root] aws_internet_gateway.main&#45;&gt;[root] aws_internet_gateway.main (expand) -->
<g id="edge4" class="edge">
<title>[root] aws_internet_gateway.main&#45;&gt;[root] aws_internet_gateway.main (expand)</title>
<path fill="none" stroke="black" d="M193.88,-287.7C193.88,-280.41 193.88,-271.73 193.88,-263.54"/>
<polygon fill="black" stroke="black" points="197.38,-263.62 193.88,-253.62 190.38,-263.62 197.38,-263.62"/>
</g>
<!-- [root] aws_vpc.main -->
<g id="node25" class="node">
<title>[root] aws_vpc.main</title>
<polygon fill="none" stroke="black" points="719.25,-180 624.5,-180 624.5,-144 719.25,-144 719.25,-180"/>
<text xml:space="preserve" text-anchor="middle" x="671.88" y="-156.95" font-family="Times,serif" font-size="14.00">aws_vpc.main</text>
</g>
<!-- [root] aws_internet_gateway.main (expand)&#45;&gt;[root] aws_vpc.main -->
<g id="edge3" class="edge">
<title>[root] aws_internet_gateway.main (expand)&#45;&gt;[root] aws_vpc.main</title>
<path fill="none" stroke="black" d="M278.08,-217.28C280.7,-216.84 283.31,-216.41 285.88,-216 401.49,-197.39 537.25,-179.71 613.04,-170.22"/>
<polygon fill="black" stroke="black" points="613.24,-173.72 622.73,-169.01 612.37,-166.77 613.24,-173.72"/>
</g>
<!-- [root] aws_nat_gateway.main -->
<g id="node5" class="node">
<title>[root] aws_nat_gateway.main</title>
<polygon fill="none" stroke="black" points="210.25,-468 67.5,-468 67.5,-432 210.25,-432 210.25,-468"/>
<text xml:space="preserve" text-anchor="middle" x="138.88" y="-444.95" font-family="Times,serif" font-size="14.00">aws_nat_gateway.main</text>
</g>
<!-- [root] aws_nat_gateway.main (expand) -->
<g id="node6" class="node">
<title>[root] aws_nat_gateway.main (expand)</title>
<polygon fill="none" stroke="black" points="237.25,-396 94.5,-396 94.5,-360 237.25,-360 237.25,-396"/>
<text xml:space="preserve" text-anchor="middle" x="165.88" y="-372.95" font-family="Times,serif" font-size="14.00">aws_nat_gateway.main</text>
</g>
<!-- [root] aws_nat_gateway.main&#45;&gt;[root] aws_nat_gateway.main (expand) -->
<g id="edge8" class="edge">
<title>[root] aws_nat_gateway.main&#45;&gt;[root] aws_nat_gateway.main (expand)</title>
<path fill="none" stroke="black" d="M145.55,-431.7C148.46,-424.15 151.94,-415.12 155.2,-406.68"/>
<polygon fill="black" stroke="black" points="158.4,-408.11 158.73,-397.52 151.87,-405.59 158.4,-408.11"/>
</g>
<!-- [root] aws_nat_gateway.main (expand)&#45;&gt;[root] aws_eip.main -->
<g id="edge5" class="edge">
<title>[root] aws_nat_gateway.main (expand)&#45;&gt;[root] aws_eip.main</title>
<path fill="none" stroke="black" d="M135.9,-359.52C120.61,-350.6 101.81,-339.63 85.36,-330.03"/>
<polygon fill="black" stroke="black" points="87.17,-327.04 76.77,-325.02 83.65,-333.09 87.17,-327.04"/>
</g>
<!-- [root] aws_nat_gateway.main (expand)&#45;&gt;[root] aws_internet_gateway.main -->
<g id="edge6" class="edge">
<title>[root] aws_nat_gateway.main (expand)&#45;&gt;[root] aws_internet_gateway.main</title>
<path fill="none" stroke="black" d="M172.8,-359.7C175.81,-352.15 179.43,-343.12 182.8,-334.68"/>
<polygon fill="black" stroke="black" points="186.01,-336.09 186.47,-325.51 179.51,-333.49 186.01,-336.09"/>
</g>
<!-- [root] aws_subnet.public_c -->
<g id="node23" class="node">
<title>[root] aws_subnet.public_c</title>
<polygon fill="none" stroke="black" points="424.5,-324 295.25,-324 295.25,-288 424.5,-288 424.5,-324"/>
<text xml:space="preserve" text-anchor="middle" x="359.88" y="-300.95" font-family="Times,serif" font-size="14.00">aws_subnet.public_c</text>
</g>
<!-- [root] aws_nat_gateway.main (expand)&#45;&gt;[root] aws_subnet.public_c -->
<g id="edge7" class="edge">
<title>[root] aws_nat_gateway.main (expand)&#45;&gt;[root] aws_subnet.public_c</title>
<path fill="none" stroke="black" d="M214.33,-359.52C240.58,-350.04 273.23,-338.26 300.95,-328.26"/>
<polygon fill="black" stroke="black" points="302.06,-331.58 310.28,-324.9 299.68,-325 302.06,-331.58"/>
</g>
<!-- [root] aws_subnet.private_data_a -->
<g id="node7" class="node">
<title>[root] aws_subnet.private_data_a</title>
<polygon fill="none" stroke="black" points="391,-468 228.75,-468 228.75,-432 391,-432 391,-468"/>
<text xml:space="preserve" text-anchor="middle" x="309.88" y="-444.95" font-family="Times,serif" font-size="14.00">aws_subnet.private_data_a</text>
</g>
<!-- [root] aws_subnet.private_data_a (expand) -->
<g id="node8" class="node">
<title>[root] aws_subnet.private_data_a (expand)</title>
<polygon fill="none" stroke="black" points="477,-396 314.75,-396 314.75,-360 477,-360 477,-396"/>
<text xml:space="preserve" text-anchor="middle" x="395.88" y="-372.95" font-family="Times,serif" font-size="14.00">aws_subnet.private_data_a</text>
</g>
<!-- [root] aws_subnet.private_data_a&#45;&gt;[root] aws_subnet.private_data_a (expand) -->
<g id="edge10" class="edge">
<title>[root] aws_subnet.private_data_a&#45;&gt;[root] aws_subnet.private_data_a (expand)</title>
<path fill="none" stroke="black" d="M331.13,-431.7C341.57,-423.2 354.33,-412.81 365.76,-403.51"/>
<polygon fill="black" stroke="black" points="367.84,-406.33 373.39,-397.3 363.42,-400.9 367.84,-406.33"/>
</g>
<!-- [root] aws_subnet.private_data_a (expand)&#45;&gt;[root] aws_vpc.main -->
<g id="edge9" class="edge">
<title>[root] aws_subnet.private_data_a (expand)&#45;&gt;[root] aws_vpc.main</title>
<path fill="none" stroke="black" d="M408.97,-359.74C423.44,-341.14 447.88,-311.12 471.88,-288 509.02,-252.22 519.21,-243.44 562.88,-216 580.91,-204.67 601.72,-194.02 620.29,-185.27"/>
<polygon fill="black" stroke="black" points="621.65,-188.5 629.26,-181.12 618.72,-182.14 621.65,-188.5"/>
</g>
<!-- [root] aws_subnet.private_data_b -->
<g id="node9" class="node">
<title>[root] aws_subnet.private_data_b</title>
<polygon fill="none" stroke="black" points="572.38,-468 409.38,-468 409.38,-432 572.38,-432 572.38,-468"/>
<text xml:space="preserve" text-anchor="middle" x="490.88" y="-444.95" font-family="Times,serif" font-size="14.00">aws_subnet.private_data_b</text>
</g>
<!-- [root] aws_subnet.private_data_b (expand) -->
<g id="node10" class="node">
<title>[root] aws_subnet.private_data_b (expand)</title>
<polygon fill="none" stroke="black" points="644.38,-324 481.38,-324 481.38,-288 644.38,-288 644.38,-324"/>
<text xml:space="preserve" text-anchor="middle" x="562.88" y="-300.95" font-family="Times,serif" font-size="14.00">aws_subnet.private_data_b</text>
</g>
<!-- [root] aws_subnet.private_data_b&#45;&gt;[root] aws_subnet.private_data_b (expand) -->
<g id="edge12" class="edge">
<title>[root] aws_subnet.private_data_b&#45;&gt;[root] aws_subnet.private_data_b (expand)</title>
<path fill="none" stroke="black" d="M499.7,-431.59C512.02,-407.29 534.49,-362.97 549.05,-334.27"/>
<polygon fill="black" stroke="black" points="552.11,-335.96 553.51,-325.46 545.87,-332.8 552.11,-335.96"/>
</g>
<!-- [root] aws_subnet.private_data_b (expand)&#45;&gt;[root] aws_vpc.main -->
<g id="edge11" class="edge">
<title>[root] aws_subnet.private_data_b (expand)&#45;&gt;[root] aws_vpc.main</title>
<path fill="none" stroke="black" d="M562.58,-287.62C563.1,-268.38 566.54,-237.28 581.88,-216 590.75,-203.69 603.43,-193.77 616.49,-185.98"/>
<polygon fill="black" stroke="black" points="618.12,-189.08 625.17,-181.18 614.73,-182.96 618.12,-189.08"/>
</g>
<!-- [root] aws_subnet.private_data_c -->
<g id="node11" class="node">
<title>[root] aws_subnet.private_data_c</title>
<polygon fill="none" stroke="black" points="753,-468 590.75,-468 590.75,-432 753,-432 753,-468"/>
<text xml:space="preserve" text-anchor="middle" x="671.88" y="-444.95" font-family="Times,serif" font-size="14.00">aws_subnet.private_data_c</text>
</g>
<!-- [root] aws_subnet.private_data_c (expand) -->
<g id="node12" class="node">
<title>[root] aws_subnet.private_data_c (expand)</title>
<polygon fill="none" stroke="black" points="753,-252 590.75,-252 590.75,-216 753,-216 753,-252"/>
<text xml:space="preserve" text-anchor="middle" x="671.88" y="-228.95" font-family="Times,serif" font-size="14.00">aws_subnet.private_data_c</text>
</g>
<!-- [root] aws_subnet.private_data_c&#45;&gt;[root] aws_subnet.private_data_c (expand) -->
<g id="edge14" class="edge">
<title>[root] aws_subnet.private_data_c&#45;&gt;[root] aws_subnet.private_data_c (expand)</title>
<path fill="none" stroke="black" d="M671.88,-431.85C671.88,-395.14 671.88,-308.66 671.88,-263.53"/>
<polygon fill="black" stroke="black" points="675.38,-263.75 671.88,-253.75 668.38,-263.75 675.38,-263.75"/>
</g>
<!-- [root] aws_subnet.private_data_c (expand)&#45;&gt;[root] aws_vpc.main -->
<g id="edge13" class="edge">
<title>[root] aws_subnet.private_data_c (expand)&#45;&gt;[root] aws_vpc.main</title>
<path fill="none" stroke="black" d="M671.88,-215.7C671.88,-208.41 671.88,-199.73 671.88,-191.54"/>
<polygon fill="black" stroke="black" points="675.38,-191.62 671.88,-181.62 668.38,-191.62 675.38,-191.62"/>
</g>
<!-- [root] aws_subnet.private_egress_a -->
<g id="node13" class="node">
<title>[root] aws_subnet.private_egress_a</title>
<polygon fill="none" stroke="black" points="944.62,-468 771.12,-468 771.12,-432 944.62,-432 944.62,-468"/>
<text xml:space="preserve" text-anchor="middle" x="857.88" y="-444.95" font-family="Times,serif" font-size="14.00">aws_subnet.private_egress_a</text>
</g>
<!-- [root] aws_subnet.private_egress_a (expand) -->
<g id="node14" class="node">
<title>[root] aws_subnet.private_egress_a (expand)</title>
<polygon fill="none" stroke="black" points="944.62,-252 771.12,-252 771.12,-216 944.62,-216 944.62,-252"/>
<text xml:space="preserve" text-anchor="middle" x="857.88" y="-228.95" font-family="Times,serif" font-size="14.00">aws_subnet.private_egress_a</text>
</g>
<!-- [root] aws_subnet.private_egress_a&#45;&gt;[root] aws_subnet.private_egress_a (expand) -->
<g id="edge16" class="edge">
<title>[root] aws_subnet.private_egress_a&#45;&gt;[root] aws_subnet.private_egress_a (expand)</title>
<path fill="none" stroke="black" d="M857.88,-431.85C857.88,-395.14 857.88,-308.66 857.88,-263.53"/>
<polygon fill="black" stroke="black" points="861.38,-263.75 857.88,-253.75 854.38,-263.75 861.38,-263.75"/>
</g>
<!-- [root] aws_subnet.private_egress_a (expand)&#45;&gt;[root] aws_vpc.main -->
<g id="edge15" class="edge">
<title>[root] aws_subnet.private_egress_a (expand)&#45;&gt;[root] aws_vpc.main</title>
<path fill="none" stroke="black" d="M811.42,-215.52C786.36,-206.08 755.22,-194.37 728.72,-184.39"/>
<polygon fill="black" stroke="black" points="730.07,-181.16 719.48,-180.91 727.6,-187.71 730.07,-181.16"/>
</g>
<!-- [root] aws_subnet.private_egress_b -->
<g id="node15" class="node">
<title>[root] aws_subnet.private_egress_b</title>
<polygon fill="none" stroke="black" points="1137,-468 962.75,-468 962.75,-432 1137,-432 1137,-468"/>
<text xml:space="preserve" text-anchor="middle" x="1049.88" y="-444.95" font-family="Times,serif" font-size="14.00">aws_subnet.private_egress_b</text>
</g>
<!-- [root] aws_subnet.private_egress_b (expand) -->
<g id="node16" class="node">
<title>[root] aws_subnet.private_egress_b (expand)</title>
<polygon fill="none" stroke="black" points="1103,-396 928.75,-396 928.75,-360 1103,-360 1103,-396"/>
<text xml:space="preserve" text-anchor="middle" x="1015.88" y="-372.95" font-family="Times,serif" font-size="14.00">aws_subnet.private_egress_b</text>
</g>
<!-- [root] aws_subnet.private_egress_b&#45;&gt;[root] aws_subnet.private_egress_b (expand) -->
<g id="edge18" class="edge">
<title>[root] aws_subnet.private_egress_b&#45;&gt;[root] aws_subnet.private_egress_b (expand)</title>
<path fill="none" stroke="black" d="M1041.47,-431.7C1037.76,-424.07 1033.32,-414.92 1029.18,-406.4"/>
<polygon fill="black" stroke="black" points="1032.36,-404.93 1024.84,-397.47 1026.06,-407.99 1032.36,-404.93"/>
</g>
<!-- [root] aws_subnet.private_egress_b (expand)&#45;&gt;[root] aws_vpc.main -->
<g id="edge17" class="edge">
<title>[root] aws_subnet.private_egress_b (expand)&#45;&gt;[root] aws_vpc.main</title>
<path fill="none" stroke="black" d="M1014.56,-359.53C1011.04,-326.09 998.41,-253.09 953.88,-216 920.72,-188.39 803.31,-173.87 730.85,-167.38"/>
<polygon fill="black" stroke="black" points="731.4,-163.91 721.13,-166.53 730.79,-170.89 731.4,-163.91"/>
</g>
<!-- [root] aws_subnet.private_egress_c -->
<g id="node17" class="node">
<title>[root] aws_subnet.private_egress_c</title>
<polygon fill="none" stroke="black" points="1328.62,-468 1155.12,-468 1155.12,-432 1328.62,-432 1328.62,-468"/>
<text xml:space="preserve" text-anchor="middle" x="1241.88" y="-444.95" font-family="Times,serif" font-size="14.00">aws_subnet.private_egress_c</text>
</g>
<!-- [root] aws_subnet.private_egress_c (expand) -->
<g id="node18" class="node">
<title>[root] aws_subnet.private_egress_c (expand)</title>
<polygon fill="none" stroke="black" points="1313.62,-396 1140.12,-396 1140.12,-360 1313.62,-360 1313.62,-396"/>
<text xml:space="preserve" text-anchor="middle" x="1226.88" y="-372.95" font-family="Times,serif" font-size="14.00">aws_subnet.private_egress_c</text>
</g>
<!-- [root] aws_subnet.private_egress_c&#45;&gt;[root] aws_subnet.private_egress_c (expand) -->
<g id="edge20" class="edge">
<title>[root] aws_subnet.private_egress_c&#45;&gt;[root] aws_subnet.private_egress_c (expand)</title>
<path fill="none" stroke="black" d="M1238.17,-431.7C1236.59,-424.32 1234.7,-415.52 1232.93,-407.25"/>
<polygon fill="black" stroke="black" points="1236.38,-406.63 1230.86,-397.58 1229.53,-408.1 1236.38,-406.63"/>
</g>
<!-- [root] aws_subnet.private_egress_c (expand)&#45;&gt;[root] aws_vpc.main -->
<g id="edge19" class="edge">
<title>[root] aws_subnet.private_egress_c (expand)&#45;&gt;[root] aws_vpc.main</title>
<path fill="none" stroke="black" d="M1206.99,-359.61C1167.36,-325.97 1074.45,-252.16 982.88,-216 899.31,-183.01 795.14,-170.53 731.09,-165.83"/>
<polygon fill="black" stroke="black" points="731.33,-162.34 721.12,-165.14 730.85,-169.32 731.33,-162.34"/>
</g>
<!-- [root] aws_subnet.public_a -->
<g id="node19" class="node">
<title>[root] aws_subnet.public_a</title>
<polygon fill="none" stroke="black" points="1475.5,-468 1346.25,-468 1346.25,-432 1475.5,-432 1475.5,-468"/>
<text xml:space="preserve" text-anchor="middle" x="1410.88" y="-444.95" font-family="Times,serif" font-size="14.00">aws_subnet.public_a</text>
</g>
<!-- [root] aws_subnet.public_a (expand) -->
<g id="node20" class="node">
<title>[root] aws_subnet.public_a (expand)</title>
<polygon fill="none" stroke="black" points="1470.5,-396 1341.25,-396 1341.25,-360 1470.5,-360 1470.5,-396"/>
<text xml:space="preserve" text-anchor="middle" x="1405.88" y="-372.95" font-family="Times,serif" font-size="14.00">aws_subnet.public_a</text>
</g>
<!-- [root] aws_subnet.public_a&#45;&gt;[root] aws_subnet.public_a (expand) -->
<g id="edge22" class="edge">
<title>[root] aws_subnet.public_a&#45;&gt;[root] aws_subnet.public_a (expand)</title>
<path fill="none" stroke="black" d="M1409.64,-431.7C1409.12,-424.41 1408.5,-415.73 1407.91,-407.54"/>
<polygon fill="black" stroke="black" points="1411.41,-407.34 1407.2,-397.61 1404.43,-407.84 1411.41,-407.34"/>
</g>
<!-- [root] aws_subnet.public_a (expand)&#45;&gt;[root] aws_vpc.main -->
<g id="edge21" class="edge">
<title>[root] aws_subnet.public_a (expand)&#45;&gt;[root] aws_vpc.main</title>
<path fill="none" stroke="black" d="M1368.98,-359.6C1288.8,-322.04 1100.47,-235.19 1032.88,-216 928.9,-186.48 803.16,-172.77 730.86,-166.9"/>
<polygon fill="black" stroke="black" points="731.48,-163.44 721.23,-166.15 730.93,-170.42 731.48,-163.44"/>
</g>
<!-- [root] aws_subnet.public_b -->
<g id="node21" class="node">
<title>[root] aws_subnet.public_b</title>
<polygon fill="none" stroke="black" points="1623.88,-468 1493.88,-468 1493.88,-432 1623.88,-432 1623.88,-468"/>
<text xml:space="preserve" text-anchor="middle" x="1558.88" y="-444.95" font-family="Times,serif" font-size="14.00">aws_subnet.public_b</text>
</g>
<!-- [root] aws_subnet.public_b (expand) -->
<g id="node22" class="node">
<title>[root] aws_subnet.public_b (expand)</title>
<polygon fill="none" stroke="black" points="1434.88,-324 1304.88,-324 1304.88,-288 1434.88,-288 1434.88,-324"/>
<text xml:space="preserve" text-anchor="middle" x="1369.88" y="-300.95" font-family="Times,serif" font-size="14.00">aws_subnet.public_b</text>
</g>
<!-- [root] aws_subnet.public_b&#45;&gt;[root] aws_subnet.public_b (expand) -->
<g id="edge24" class="edge">
<title>[root] aws_subnet.public_b&#45;&gt;[root] aws_subnet.public_b (expand)</title>
<path fill="none" stroke="black" d="M1546.85,-431.75C1532.64,-412.33 1507.41,-380.8 1479.88,-360 1463.76,-347.82 1444.39,-337.37 1426.44,-329.04"/>
<polygon fill="black" stroke="black" points="1428,-325.91 1417.44,-325.01 1425.14,-332.29 1428,-325.91"/>
</g>
<!-- [root] aws_subnet.public_b (expand)&#45;&gt;[root] aws_vpc.main -->
<g id="edge23" class="edge">
<title>[root] aws_subnet.public_b (expand)&#45;&gt;[root] aws_vpc.main</title>
<path fill="none" stroke="black" d="M1354.42,-287.67C1334.46,-266.6 1297.53,-231.88 1257.88,-216 1163.17,-178.08 859.56,-167.07 730.65,-164.06"/>
<polygon fill="black" stroke="black" points="731.06,-160.57 720.98,-163.84 730.9,-167.57 731.06,-160.57"/>
</g>
<!-- [root] aws_subnet.public_c (expand) -->
<g id="node24" class="node">
<title>[root] aws_subnet.public_c (expand)</title>
<polygon fill="none" stroke="black" points="424.5,-252 295.25,-252 295.25,-216 424.5,-216 424.5,-252"/>
<text xml:space="preserve" text-anchor="middle" x="359.88" y="-228.95" font-family="Times,serif" font-size="14.00">aws_subnet.public_c</text>
</g>
<!-- [root] aws_subnet.public_c&#45;&gt;[root] aws_subnet.public_c (expand) -->
<g id="edge26" class="edge">
<title>[root] aws_subnet.public_c&#45;&gt;[root] aws_subnet.public_c (expand)</title>
<path fill="none" stroke="black" d="M359.88,-287.7C359.88,-280.41 359.88,-271.73 359.88,-263.54"/>
<polygon fill="black" stroke="black" points="363.38,-263.62 359.88,-253.62 356.38,-263.62 363.38,-263.62"/>
</g>
<!-- [root] aws_subnet.public_c (expand)&#45;&gt;[root] aws_vpc.main -->
<g id="edge25" class="edge">
<title>[root] aws_subnet.public_c (expand)&#45;&gt;[root] aws_vpc.main</title>
<path fill="none" stroke="black" d="M424.9,-218.41C480.42,-205.95 559.58,-188.2 613.19,-176.17"/>
<polygon fill="black" stroke="black" points="613.76,-179.63 622.75,-174.02 612.23,-172.8 613.76,-179.63"/>
</g>
<!-- [root] aws_vpc.main (expand) -->
<g id="node26" class="node">
<title>[root] aws_vpc.main (expand)</title>
<polygon fill="none" stroke="black" points="471.25,-108 376.5,-108 376.5,-72 471.25,-72 471.25,-108"/>
<text xml:space="preserve" text-anchor="middle" x="423.88" y="-84.95" font-family="Times,serif" font-size="14.00">aws_vpc.main</text>
</g>
<!-- [root] aws_vpc.main&#45;&gt;[root] aws_vpc.main (expand) -->
<g id="edge28" class="edge">
<title>[root] aws_vpc.main&#45;&gt;[root] aws_vpc.main (expand)</title>
<path fill="none" stroke="black" d="M624.06,-147.5C583.66,-136.1 525.65,-119.73 482.46,-107.54"/>
<polygon fill="black" stroke="black" points="483.58,-104.21 473,-104.87 481.67,-110.95 483.58,-104.21"/>
</g>
<!-- [root] aws_vpc.main (expand)&#45;&gt;[root] provider[&quot;registry.terraform.io/hashicorp/aws&quot;] -->
<g id="edge27" class="edge">
<title>[root] aws_vpc.main (expand)&#45;&gt;[root] provider[&quot;registry.terraform.io/hashicorp/aws&quot;]</title>
<path fill="none" stroke="black" d="M412.26,-71.7C406.88,-63.7 400.39,-54.02 394.44,-45.15"/>
<polygon fill="black" stroke="black" points="397.36,-43.23 388.88,-36.88 391.55,-47.13 397.36,-43.23"/>
</g>
<!-- [root] provider[&quot;registry.terraform.io/hashicorp/aws&quot;] (close) -->
<g id="node28" class="node">
<title>[root] provider[&quot;registry.terraform.io/hashicorp/aws&quot;] (close)</title>
<ellipse fill="none" stroke="black" cx="857.88" cy="-522" rx="238.16" ry="18"/>
<text xml:space="preserve" text-anchor="middle" x="857.88" y="-516.95" font-family="Times,serif" font-size="14.00">[root] provider[&quot;registry.terraform.io/hashicorp/aws&quot;] (close)</text>
</g>
<!-- [root] provider[&quot;registry.terraform.io/hashicorp/aws&quot;] (close)&#45;&gt;[root] aws_nat_gateway.main -->
<g id="edge29" class="edge">
<title>[root] provider[&quot;registry.terraform.io/hashicorp/aws&quot;] (close)&#45;&gt;[root] aws_nat_gateway.main</title>
<path fill="none" stroke="black" d="M664.53,-511.19C540.63,-503.4 376.26,-490.29 221.47,-468.11"/>
<polygon fill="black" stroke="black" points="222.24,-464.69 211.84,-466.72 221.24,-471.62 222.24,-464.69"/>
</g>
<!-- [root] provider[&quot;registry.terraform.io/hashicorp/aws&quot;] (close)&#45;&gt;[root] aws_subnet.private_data_a -->
<g id="edge30" class="edge">
<title>[root] provider[&quot;registry.terraform.io/hashicorp/aws&quot;] (close)&#45;&gt;[root] aws_subnet.private_data_a</title>
<path fill="none" stroke="black" d="M715.43,-507.17C627.86,-498.03 513.13,-484.93 402.63,-468.36"/>
<polygon fill="black" stroke="black" points="403.17,-464.9 392.76,-466.87 402.13,-471.83 403.17,-464.9"/>
</g>
<!-- [root] provider[&quot;registry.terraform.io/hashicorp/aws&quot;] (close)&#45;&gt;[root] aws_subnet.private_data_b -->
<g id="edge31" class="edge">
<title>[root] provider[&quot;registry.terraform.io/hashicorp/aws&quot;] (close)&#45;&gt;[root] aws_subnet.private_data_b</title>
<path fill="none" stroke="black" d="M772.76,-504.76C716.16,-493.97 641.84,-479.79 583.72,-468.71"/>
<polygon fill="black" stroke="black" points="584.66,-465.33 574.18,-466.89 583.35,-472.2 584.66,-465.33"/>
</g>
<!-- [root] provider[&quot;registry.terraform.io/hashicorp/aws&quot;] (close)&#45;&gt;[root] aws_subnet.private_data_c -->
<g id="edge32" class="edge">
<title>[root] provider[&quot;registry.terraform.io/hashicorp/aws&quot;] (close)&#45;&gt;[root] aws_subnet.private_data_c</title>
<path fill="none" stroke="black" d="M812.37,-503.88C787.23,-494.41 755.75,-482.57 728.97,-472.49"/>
<polygon fill="black" stroke="black" points="730.21,-469.21 719.61,-468.97 727.74,-475.76 730.21,-469.21"/>
</g>
<!-- [root] provider[&quot;registry.terraform.io/hashicorp/aws&quot;] (close)&#45;&gt;[root] aws_subnet.private_egress_a -->
<g id="edge33" class="edge">
<title>[root] provider[&quot;registry.terraform.io/hashicorp/aws&quot;] (close)&#45;&gt;[root] aws_subnet.private_egress_a</title>
<path fill="none" stroke="black" d="M857.88,-503.7C857.88,-496.41 857.88,-487.73 857.88,-479.54"/>
<polygon fill="black" stroke="black" points="861.38,-479.62 857.88,-469.62 854.38,-479.62 861.38,-479.62"/>
</g>
<!-- [root] provider[&quot;registry.terraform.io/hashicorp/aws&quot;] (close)&#45;&gt;[root] aws_subnet.private_egress_b -->
<g id="edge34" class="edge">
<title>[root] provider[&quot;registry.terraform.io/hashicorp/aws&quot;] (close)&#45;&gt;[root] aws_subnet.private_egress_b</title>
<path fill="none" stroke="black" d="M904.84,-503.88C930.91,-494.37 963.58,-482.46 991.3,-472.35"/>
<polygon fill="black" stroke="black" points="992.44,-475.67 1000.64,-468.95 990.04,-469.09 992.44,-475.67"/>
</g>
<!-- [root] provider[&quot;registry.terraform.io/hashicorp/aws&quot;] (close)&#45;&gt;[root] aws_subnet.private_egress_c -->
<g id="edge35" class="edge">
<title>[root] provider[&quot;registry.terraform.io/hashicorp/aws&quot;] (close)&#45;&gt;[root] aws_subnet.private_egress_c</title>
<path fill="none" stroke="black" d="M946.45,-504.85C1005.36,-494.11 1082.78,-480 1143.58,-468.92"/>
<polygon fill="black" stroke="black" points="1144.04,-472.39 1153.25,-467.16 1142.78,-465.51 1144.04,-472.39"/>
</g>
<!-- [root] provider[&quot;registry.terraform.io/hashicorp/aws&quot;] (close)&#45;&gt;[root] aws_subnet.public_a -->
<g id="edge36" class="edge">
<title>[root] provider[&quot;registry.terraform.io/hashicorp/aws&quot;] (close)&#45;&gt;[root] aws_subnet.public_a</title>
<path fill="none" stroke="black" d="M1016.9,-508.22C1107.67,-499.78 1223.72,-487.05 1334.98,-468.39"/>
<polygon fill="black" stroke="black" points="1335.31,-471.89 1344.59,-466.76 1334.14,-464.99 1335.31,-471.89"/>
</g>
<!-- [root] provider[&quot;registry.terraform.io/hashicorp/aws&quot;] (close)&#45;&gt;[root] aws_subnet.public_b -->
<g id="edge37" class="edge">
<title>[root] provider[&quot;registry.terraform.io/hashicorp/aws&quot;] (close)&#45;&gt;[root] aws_subnet.public_b</title>
<path fill="none" stroke="black" d="M1054.3,-511.55C1175.29,-504.01 1333.65,-491.05 1482.45,-468.25"/>
<polygon fill="black" stroke="black" points="1482.76,-471.75 1492.11,-466.75 1481.69,-464.83 1482.76,-471.75"/>
</g>
<!-- [root] root -->
<g id="node29" class="node">
<title>[root] root</title>
<ellipse fill="none" stroke="black" cx="857.88" cy="-594" rx="49.3" ry="18"/>
<text xml:space="preserve" text-anchor="middle" x="857.88" y="-588.95" font-family="Times,serif" font-size="14.00">[root] root</text>
</g>
<!-- [root] root&#45;&gt;[root] provider[&quot;registry.terraform.io/hashicorp/aws&quot;] (close) -->
<g id="edge38" class="edge">
<title>[root] root&#45;&gt;[root] provider[&quot;registry.terraform.io/hashicorp/aws&quot;] (close)</title>
<path fill="none" stroke="black" d="M857.88,-575.7C857.88,-568.41 857.88,-559.73 857.88,-551.54"/>
<polygon fill="black" stroke="black" points="861.38,-551.62 857.88,-541.62 854.38,-551.62 861.38,-551.62"/>
</g>
</g>
</svg>
